<svg width="34" height="61" viewBox="0 0 34 61" fill="none" xmlns="http://www.w3.org/2000/svg">
<path fill-rule="evenodd" clip-rule="evenodd" d="M29 2.08813H5C3.34315 2.08813 2 3.43128 2 5.08813V55.0881C2 56.745 3.34315 58.0881 5 58.0881H29C30.6569 58.0881 32 56.745 32 55.0881V5.08813C32 3.43128 30.6569 2.08813 29 2.08813ZM5 0.0881348C2.23858 0.0881348 0 2.32671 0 5.08813V55.0881C0 57.8496 2.23858 60.0881 5 60.0881H29C31.7614 60.0881 34 57.8496 34 55.0881V5.08813C34 2.32671 31.7614 0.0881348 29 0.0881348H5Z" fill="#5528FF"/>
<rect x="2" y="6.14355" width="30" height="2" fill="#5528FF"/>
<rect x="2" y="52.0815" width="30" height="2" fill="#5528FF"/>
<circle cx="17" cy="56.0999" r="1" fill="#5528FF"/>
</svg>
