<svg width="80" height="62" viewBox="0 0 80 62" fill="none" xmlns="http://www.w3.org/2000/svg">
<path d="M38.1756 22.1468C39.321 21.5598 40.679 21.5598 41.8244 22.1468L70.8616 37.0284C73.7625 38.5151 73.7625 42.6612 70.8616 44.1479L41.8244 59.0295C40.679 59.6165 39.321 59.6165 38.1756 59.0295L9.13837 44.1479C6.23752 42.6612 6.23752 38.5151 9.13837 37.0284L38.1756 22.1468Z" stroke="#5528FF" stroke-width="2"/>
<path d="M38.1756 12.1468C39.321 11.5598 40.679 11.5598 41.8244 12.1468L70.8616 27.0284C73.7625 28.5151 73.7625 32.6612 70.8616 34.1479L41.8244 49.0295C40.679 49.6165 39.321 49.6165 38.1756 49.0295L9.13837 34.1479C6.23752 32.6612 6.23752 28.5151 9.13837 27.0284L38.1756 12.1468Z" fill="white" stroke="#5528FF" stroke-width="2"/>
<path d="M38.1756 2.1468C39.321 1.55978 40.679 1.55978 41.8244 2.1468L70.8616 17.0284C73.7625 18.5151 73.7625 22.6612 70.8616 24.1479L41.8244 39.0295C40.679 39.6165 39.321 39.6165 38.1756 39.0295L9.13837 24.1479C6.23752 22.6612 6.23752 18.5151 9.13837 17.0284L38.1756 2.1468Z" fill="white" stroke="#5528FF" stroke-width="2"/>
</svg>
