<svg width="174" height="67" viewBox="0 0 174 67" fill="none" xmlns="http://www.w3.org/2000/svg">
<g filter="url(#filter0_d)">
<path fill-rule="evenodd" clip-rule="evenodd" d="M33.5623 0.132812V11.7328C23.9525 11.7328 16.1623 19.5231 16.1623 29.1328C16.1623 38.7426 23.9525 46.5328 33.5623 46.5328C43.172 46.5328 50.9623 38.7426 50.9623 29.1328H62.5623C62.5623 45.1491 49.5785 58.1328 33.5623 58.1328C17.546 58.1328 4.56226 45.1491 4.56226 29.1328C4.56226 13.1166 17.546 0.132812 33.5623 0.132812Z" fill="#5528FF"/>
<path fill-rule="evenodd" clip-rule="evenodd" d="M33.5623 5.93286H56.7623V29.1329H45.1623V17.5329H33.5623V5.93286Z" fill="#5528FF"/>
<path d="M96.4947 29.4368C96.4947 28.2848 96.3427 27.4688 96.0387 26.9888C95.7507 26.5088 95.2467 26.2688 94.5267 26.2688C94.3027 26.2688 94.0707 26.2848 93.8307 26.3168C93.5907 26.3328 93.3587 26.3568 93.1347 26.3888V36.1328H89.5587V23.9408C89.8627 23.8608 90.2147 23.7808 90.6147 23.7008C91.0307 23.6048 91.4627 23.5248 91.9107 23.4608C92.3747 23.3808 92.8467 23.3248 93.3267 23.2928C93.8067 23.2448 94.2787 23.2208 94.7427 23.2208C95.6547 23.2208 96.3907 23.3408 96.9507 23.5808C97.5267 23.8048 97.9987 24.0768 98.3667 24.3968C98.8787 24.0288 99.4627 23.7408 100.119 23.5328C100.791 23.3248 101.407 23.2208 101.967 23.2208C102.975 23.2208 103.799 23.3648 104.439 23.6528C105.095 23.9248 105.615 24.3168 105.999 24.8288C106.383 25.3408 106.647 25.9488 106.791 26.6528C106.935 27.3568 107.007 28.1408 107.007 29.0048V36.1328H103.431V29.4368C103.431 28.2848 103.279 27.4688 102.975 26.9888C102.687 26.5088 102.183 26.2688 101.463 26.2688C101.271 26.2688 100.999 26.3168 100.647 26.4128C100.311 26.5088 100.031 26.6288 99.8067 26.7728C99.9187 27.1408 99.9907 27.5328 100.023 27.9488C100.055 28.3488 100.071 28.7808 100.071 29.2448V36.1328H96.4947V29.4368ZM115.078 33.6368C115.43 33.6368 115.766 33.6288 116.086 33.6128C116.406 33.5968 116.662 33.5728 116.854 33.5408V30.8288C116.71 30.7968 116.494 30.7648 116.206 30.7328C115.918 30.7008 115.654 30.6848 115.414 30.6848C115.078 30.6848 114.758 30.7088 114.454 30.7568C114.166 30.7888 113.91 30.8608 113.686 30.9728C113.462 31.0848 113.286 31.2368 113.158 31.4288C113.03 31.6208 112.966 31.8608 112.966 32.1488C112.966 32.7088 113.15 33.1008 113.518 33.3248C113.902 33.5328 114.422 33.6368 115.078 33.6368ZM114.79 23.1728C115.846 23.1728 116.726 23.2928 117.43 23.5328C118.134 23.7728 118.694 24.1168 119.11 24.5648C119.542 25.0128 119.846 25.5568 120.022 26.1968C120.198 26.8368 120.286 27.5488 120.286 28.3328V35.7728C119.774 35.8848 119.062 36.0128 118.15 36.1568C117.238 36.3168 116.134 36.3968 114.838 36.3968C114.022 36.3968 113.278 36.3248 112.606 36.1808C111.95 36.0368 111.382 35.8048 110.902 35.4848C110.422 35.1488 110.054 34.7168 109.798 34.1888C109.542 33.6608 109.414 33.0128 109.414 32.2448C109.414 31.5088 109.558 30.8848 109.846 30.3728C110.15 29.8608 110.55 29.4528 111.046 29.1488C111.542 28.8448 112.11 28.6288 112.75 28.5008C113.39 28.3568 114.054 28.2848 114.742 28.2848C115.206 28.2848 115.614 28.3088 115.966 28.3568C116.334 28.3888 116.63 28.4368 116.854 28.5008V28.1648C116.854 27.5568 116.67 27.0688 116.302 26.7008C115.934 26.3328 115.294 26.1488 114.382 26.1488C113.774 26.1488 113.174 26.1968 112.582 26.2928C111.99 26.3728 111.478 26.4928 111.046 26.6528L110.59 23.7728C110.798 23.7088 111.054 23.6448 111.358 23.5808C111.678 23.5008 112.022 23.4368 112.39 23.3888C112.758 23.3248 113.142 23.2768 113.542 23.2448C113.958 23.1968 114.374 23.1728 114.79 23.1728ZM130.456 29.4368C130.456 28.2848 130.304 27.4688 130 26.9888C129.712 26.5088 129.208 26.2688 128.488 26.2688C128.264 26.2688 128.032 26.2848 127.792 26.3168C127.552 26.3328 127.32 26.3568 127.096 26.3888V36.1328H123.52V23.9408C123.824 23.8608 124.176 23.7808 124.576 23.7008C124.992 23.6048 125.424 23.5248 125.872 23.4608C126.336 23.3808 126.808 23.3248 127.288 23.2928C127.768 23.2448 128.24 23.2208 128.704 23.2208C129.616 23.2208 130.352 23.3408 130.912 23.5808C131.488 23.8048 131.96 24.0768 132.328 24.3968C132.84 24.0288 133.424 23.7408 134.08 23.5328C134.752 23.3248 135.368 23.2208 135.928 23.2208C136.936 23.2208 137.76 23.3648 138.4 23.6528C139.056 23.9248 139.576 24.3168 139.96 24.8288C140.344 25.3408 140.608 25.9488 140.752 26.6528C140.896 27.3568 140.968 28.1408 140.968 29.0048V36.1328H137.392V29.4368C137.392 28.2848 137.24 27.4688 136.936 26.9888C136.648 26.5088 136.144 26.2688 135.424 26.2688C135.232 26.2688 134.96 26.3168 134.608 26.4128C134.272 26.5088 133.992 26.6288 133.768 26.7728C133.88 27.1408 133.952 27.5328 133.984 27.9488C134.016 28.3488 134.032 28.7808 134.032 29.2448V36.1328H130.456V29.4368ZM156.023 29.7968C156.023 30.7888 155.879 31.7008 155.591 32.5328C155.303 33.3488 154.887 34.0528 154.343 34.6448C153.799 35.2208 153.143 35.6688 152.375 35.9888C151.623 36.3088 150.775 36.4688 149.831 36.4688C148.903 36.4688 148.055 36.3088 147.287 35.9888C146.535 35.6688 145.887 35.2208 145.343 34.6448C144.799 34.0528 144.375 33.3488 144.071 32.5328C143.767 31.7008 143.615 30.7888 143.615 29.7968C143.615 28.8048 143.767 27.9008 144.071 27.0848C144.391 26.2688 144.823 25.5728 145.367 24.9968C145.927 24.4208 146.583 23.9728 147.335 23.6528C148.103 23.3328 148.935 23.1728 149.831 23.1728C150.743 23.1728 151.575 23.3328 152.327 23.6528C153.095 23.9728 153.751 24.4208 154.295 24.9968C154.839 25.5728 155.263 26.2688 155.567 27.0848C155.871 27.9008 156.023 28.8048 156.023 29.7968ZM152.375 29.7968C152.375 28.6928 152.151 27.8288 151.703 27.2048C151.271 26.5648 150.647 26.2448 149.831 26.2448C149.015 26.2448 148.383 26.5648 147.935 27.2048C147.487 27.8288 147.263 28.6928 147.263 29.7968C147.263 30.9008 147.487 31.7808 147.935 32.4368C148.383 33.0768 149.015 33.3968 149.831 33.3968C150.647 33.3968 151.271 33.0768 151.703 32.4368C152.151 31.7808 152.375 30.9008 152.375 29.7968ZM158.793 23.9408C159.401 23.7648 160.185 23.6048 161.145 23.4608C162.105 23.3008 163.113 23.2208 164.169 23.2208C165.241 23.2208 166.129 23.3648 166.833 23.6528C167.553 23.9248 168.121 24.3168 168.537 24.8288C168.953 25.3408 169.249 25.9488 169.425 26.6528C169.601 27.3568 169.689 28.1408 169.689 29.0048V36.1328H166.113V29.4368C166.113 28.2848 165.961 27.4688 165.657 26.9888C165.353 26.5088 164.785 26.2688 163.953 26.2688C163.697 26.2688 163.425 26.2848 163.137 26.3168C162.849 26.3328 162.593 26.3568 162.369 26.3888V36.1328H158.793V23.9408Z" fill="#202020"/>
</g>
<defs>
<filter id="filter0_d" x="0.562256" y="0.132812" width="173.127" height="66" filterUnits="userSpaceOnUse" color-interpolation-filters="sRGB">
<feFlood flood-opacity="0" result="BackgroundImageFix"/>
<feColorMatrix in="SourceAlpha" type="matrix" values="0 0 0 0 0 0 0 0 0 0 0 0 0 0 0 0 0 0 127 0"/>
<feOffset dy="4"/>
<feGaussianBlur stdDeviation="2"/>
<feColorMatrix type="matrix" values="0 0 0 0 0 0 0 0 0 0 0 0 0 0 0 0 0 0 0.25 0"/>
<feBlend mode="normal" in2="BackgroundImageFix" result="effect1_dropShadow"/>
<feBlend mode="normal" in="SourceGraphic" in2="effect1_dropShadow" result="shape"/>
</filter>
</defs>
</svg>
