<svg width="172" height="40" viewBox="0 0 172 40" fill="none" xmlns="http://www.w3.org/2000/svg">
<path fill-rule="evenodd" clip-rule="evenodd" d="M14.0773 0.481689L15.8773 3.61669C16.2373 4.26669 16.2373 5.05869 15.8773 5.70669L5.14934 24.3377L10.2253 33.1307C10.6165 33.8069 11.178 34.3689 11.8537 34.7608C12.5295 35.1527 13.2961 35.3609 14.0773 35.3647C15.6613 35.3647 17.1373 34.4997 17.9293 33.1307L23.0053 24.3377L21.6733 21.9597L15.9133 31.9417C15.5533 32.5897 14.8333 32.9867 14.1133 32.9867C13.3573 32.9867 12.6733 32.5897 12.3133 31.9417L7.88534 24.3377L17.8573 7.04069L19.6573 10.1757C20.0173 10.8247 20.0173 11.6167 19.6573 12.2657L12.7093 24.3377L14.0773 26.7167L21.6373 13.5987L26.6053 22.2117C26.9769 22.8652 27.1722 23.604 27.1722 24.3557C27.1722 25.1074 26.9769 25.8462 26.6053 26.4997L21.5653 35.2567C20.8093 36.5897 18.3973 39.5807 14.0773 39.5807C9.75734 39.5807 7.38134 36.5907 6.58934 35.2567L1.54934 26.4997C1.17782 25.8462 0.982483 25.1074 0.982483 24.3557C0.982483 23.604 1.17782 22.8652 1.54934 22.2117L14.0773 0.481689ZM37.5133 9.81569H41.0053V30.4637H37.5133V9.81569ZM45.6853 13.5987C46.0914 13.5989 46.4884 13.4787 46.8261 13.2533C47.1638 13.0278 47.4271 12.7073 47.5827 12.3323C47.7383 11.9572 47.7791 11.5444 47.7001 11.1461C47.6211 10.7479 47.4257 10.382 47.1387 10.0947C46.8518 9.80745 46.486 9.61174 46.0878 9.53233C45.6896 9.45292 45.2768 9.49338 44.9016 9.64858C44.5264 9.80379 44.2056 10.0668 43.9799 10.4043C43.7541 10.7418 43.6335 11.1386 43.6333 11.5447C43.6333 12.6797 44.5523 13.5987 45.6853 13.5987ZM43.9213 16.1217H47.4493V30.4637H43.9213V16.1217V16.1217ZM56.7013 15.7617C52.7053 15.7617 49.4653 18.5717 49.4653 23.0407C49.4653 27.5087 52.2733 30.2477 56.7373 30.2477C58.5013 30.2477 60.3733 31.1487 60.3733 33.1307C60.3733 35.1127 58.7893 36.2307 56.7373 36.2307C54.6853 36.2307 52.9933 35.0047 52.9933 33.1307H49.4653C49.4653 36.9867 52.5613 39.5447 56.7373 39.5447C60.8773 39.5447 63.9013 37.0947 63.9013 33.1307C63.9013 31.2927 63.3253 29.5627 60.9493 28.3737C63.2893 27.2937 63.9733 24.8067 63.9733 23.0037C63.9733 18.5717 60.6973 15.7617 56.7013 15.7617V15.7617ZM74.1973 15.7617C72.5773 15.7617 71.0293 16.2657 69.7333 17.8877V9.77969H66.2053V30.4277H69.7333V23.1487C69.7333 21.0227 71.1733 19.2567 73.2613 19.2567C75.1333 19.2567 76.5013 20.3737 76.5013 22.9687V30.4287H80.0293V22.7167C80.0653 18.4997 78.2653 15.7617 74.1973 15.7617V15.7617ZM88.6333 28.0137C88.2013 28.0137 87.8413 27.8697 87.6253 27.5807C87.4093 27.2927 87.3013 26.8607 87.3013 26.2117V19.1487H90.1453L90.4693 16.0857H87.3373V12.1577L83.7733 12.5537V16.1217H81.0733V19.1847H83.7733V26.3197C83.7733 27.7977 84.1333 28.9147 84.8173 29.6717C85.5013 30.4277 86.5453 30.8247 87.8773 30.8247C88.4893 30.8247 89.0653 30.7527 89.6773 30.5717C90.2544 30.4081 90.8014 30.1529 91.2973 29.8157L90.0733 27.5457C89.6524 27.845 89.1499 28.0084 88.6333 28.0137V28.0137ZM103.141 22.7527C101.701 21.8517 100.009 21.7427 98.3533 21.6347C97.3813 21.5627 95.9053 21.3467 95.9053 20.0847C95.9053 19.1847 96.8413 18.6807 98.5333 18.6807C99.9013 18.6807 101.089 19.0047 102.097 19.9407L104.077 17.6347C102.421 16.1937 100.729 15.7617 98.4613 15.7617C95.8333 15.7617 92.3773 16.9147 92.3773 20.2297C92.3773 21.5997 93.0973 22.8597 94.2853 23.5807C95.6173 24.4107 97.3453 24.5177 98.8213 24.6987C99.8293 24.8067 101.485 25.0587 101.197 26.4637C101.017 27.4367 99.8293 27.7257 99.0013 27.7617C98.1013 27.7977 97.2013 27.7257 96.3013 27.5087C95.3653 27.2567 94.6093 26.8247 93.7813 26.2837L91.9813 28.5537C92.0893 28.6257 92.1973 28.7337 92.1973 28.7337C94.5013 30.6437 97.7053 31.2567 100.621 30.6077C102.817 30.1037 104.689 28.5177 104.689 26.1397C104.761 24.8067 104.329 23.4727 103.141 22.7527V22.7527ZM114.769 15.7617C113.149 15.7617 111.241 16.4457 110.125 18.0317L110.017 16.0857H106.597V36.7347L110.125 36.3377V28.7707C111.133 30.3207 113.329 30.8247 114.841 30.8247C119.413 30.8247 122.077 27.4007 122.077 23.2567C122.077 19.0407 119.161 15.7617 114.769 15.7617ZM126.685 24.5537C127.081 26.2477 128.629 27.7257 131.149 27.7257C132.445 27.7257 134.173 27.0757 135.001 26.2477L137.269 28.4817C135.757 30.0317 133.273 30.7887 131.113 30.7887C126.649 30.7887 123.409 27.8337 123.409 23.2567C123.409 18.9327 126.757 15.7617 130.861 15.7617C135.181 15.7617 138.781 18.7167 138.421 24.5537H126.685V24.5537ZM143.029 24.5537C143.425 26.2477 144.973 27.7257 147.493 27.7257C148.789 27.7257 150.517 27.0757 151.345 26.2477L153.613 28.4817C152.101 30.0317 149.617 30.7887 147.457 30.7887C142.993 30.7887 139.753 27.8337 139.753 23.2567C139.753 18.9327 143.101 15.7617 147.205 15.7617C151.525 15.7617 155.125 18.7167 154.765 24.5537H143.029V24.5537ZM163.297 30.8237C164.917 30.8237 166.825 30.1397 167.941 28.5537L168.049 30.4637H171.469V9.81569H167.941V17.8157C166.933 16.2657 164.701 15.7977 163.189 15.7977C158.617 15.7977 155.989 19.1847 155.989 23.3647C155.989 27.5447 158.905 30.8247 163.297 30.8247V30.8237ZM56.7373 27.3287C54.6853 27.3287 52.9933 25.5627 52.9933 23.0407C52.9933 20.5537 54.6853 18.7167 56.7373 18.7167C58.7893 18.7167 60.4453 20.5897 60.4453 23.0407C60.4453 25.5267 58.7533 27.3287 56.7373 27.3287V27.3287ZM114.481 27.7617C112.069 27.7617 110.449 25.5627 110.449 23.3287C110.449 21.0947 111.961 18.7167 114.481 18.7167C117.037 18.7167 118.513 21.1307 118.513 23.3287C118.549 25.5627 116.893 27.7617 114.481 27.7617ZM135.001 21.8517C134.605 20.1577 132.913 18.6807 130.861 18.6807C128.953 18.6807 127.189 19.9777 126.685 21.8507H135.001V21.8517ZM151.381 21.8517C150.985 20.1577 149.293 18.6807 147.241 18.6807C145.333 18.6807 143.569 19.9777 143.065 21.8507H151.381V21.8517ZM163.549 18.8247C165.961 18.8247 167.581 21.0227 167.581 23.2567C167.581 25.4907 166.069 27.8697 163.549 27.8697C160.993 27.8697 159.517 25.4547 159.517 23.2567C159.517 21.0227 161.137 18.8247 163.549 18.8247V18.8247Z" fill="#B2B2B2"/>
</svg>
