<svg width="86" height="44" viewBox="0 0 86 44" fill="none" xmlns="http://www.w3.org/2000/svg">
<path fill-rule="evenodd" clip-rule="evenodd" d="M31.9695 16.9117L29.3155 25.4667C30.1255 25.7837 31.0255 25.9647 31.9695 25.9647C32.9135 25.9647 33.8135 25.7847 34.5775 25.5127L31.9695 16.9127V16.9117ZM0.982483 0.481689V43.4817H43.7525L85.5775 0.481689H0.982483ZM52.5675 26.9607H49.8685V35.1537H37.5455L36.3315 31.2157C35.0275 31.6677 33.5435 31.8947 31.9695 31.8947C30.3495 31.8947 28.8655 31.6227 27.5165 31.1697L26.2575 35.1077H18.7015L19.5115 32.8447C19.4215 32.9347 19.3315 33.0257 19.1965 33.1167C17.3075 34.7007 14.9245 35.5157 12.0465 35.6067H11.5965C8.22348 35.6067 4.94048 34.6557 2.15148 33.0267L4.71548 27.7757C7.50348 29.4497 9.25748 29.8577 11.5955 29.8127C12.8105 29.7667 13.7095 29.5407 14.2955 28.9527C14.6545 28.5897 14.8345 28.1377 14.8345 27.6397C14.8795 26.2817 12.9905 25.6477 10.6515 24.8787C8.76248 24.2897 6.64948 23.4757 4.98548 22.2087C3.00548 20.7147 2.06148 18.8587 2.10648 16.2337C2.15148 14.3327 2.82648 12.6127 4.08648 11.2537C5.92848 9.30869 8.85248 8.13169 12.4055 8.13169C15.4625 8.13169 19.1505 9.03769 21.8495 10.4407L18.9255 15.6457C16.0025 14.1977 14.5185 14.0617 12.8545 13.9707C10.3355 13.8357 9.07648 14.7407 9.07648 15.7367C9.07648 16.9137 11.4155 18.0447 13.6635 18.7687C17.0815 19.8557 21.3995 21.3487 22.0295 25.6487L28.2355 8.62969H35.4315L42.7165 28.9537V8.53869H51.0365C58.9965 8.53869 62.7305 11.4357 62.7305 17.8177C62.9105 23.5207 59.0425 26.9607 52.5665 26.9607H52.5675ZM51.7125 14.1507H49.8685V21.0307H51.7125C54.1415 21.0307 56.1195 20.2167 56.1195 17.5457C56.1195 15.0107 54.1415 14.1507 51.7125 14.1507Z" fill="#B2B2B2"/>
</svg>
