<svg width="146" height="41" viewBox="0 0 146 41" fill="none" xmlns="http://www.w3.org/2000/svg">
<path fill-rule="evenodd" clip-rule="evenodd" d="M134.528 13.7237C134.387 13.6047 134.237 13.5197 134.098 13.5137C133.277 13.4843 132.456 13.4759 131.635 13.4887C130.8 13.4967 129.942 13.5137 129.049 13.5137C129.105 13.6007 129.156 13.6837 129.204 13.7607C129.434 14.1277 129.596 14.3967 129.776 14.6527C131.207 16.6947 132.609 18.7587 134.099 20.7577C134.516 21.3177 134.563 21.7337 134.317 22.2137C134.244 22.3511 134.161 22.4822 134.067 22.6057C133.625 23.1977 133.192 23.7957 132.763 24.3957C131.927 25.5677 131.108 26.7507 130.278 27.9257C129.855 28.5237 129.438 29.1257 128.875 29.9307C129.685 29.9307 130.415 29.9147 131.105 29.9107C131.676 29.9048 132.248 29.9178 132.819 29.9497C133.222 29.9747 133.545 29.9197 133.818 29.7797C134.135 29.6197 134.385 29.3427 134.614 28.9427C134.876 28.4867 135.149 28.0387 135.433 27.5877C135.987 26.7057 136.579 25.8177 137.191 24.8557C138.231 26.4177 139.113 27.7727 140.03 29.1057C140.241 29.4117 140.555 29.8587 140.84 29.8717C141.666 29.9058 142.492 29.9212 143.319 29.9177C144.166 29.9177 145.045 29.9077 145.983 29.9077C144.113 27.2477 142.429 24.8157 140.696 22.4177C140.467 22.1017 140.354 21.8397 140.373 21.5687C140.388 21.3517 140.487 21.1287 140.679 20.8677C141.555 19.6697 142.418 18.4623 143.268 17.2457L144.056 16.1207L145.142 14.5707C145.256 14.4087 145.364 14.2417 145.484 14.0527C145.585 13.8927 145.696 13.7157 145.828 13.5107C144.282 13.5107 142.974 13.5557 141.671 13.4927C141.378 13.4787 141.145 13.5197 140.947 13.6127C140.669 13.7437 140.462 13.9797 140.265 14.3127C139.9 14.925 139.526 15.5317 139.144 16.1327C138.681 16.8627 138.193 17.6187 137.671 18.4437C137.494 18.1737 137.323 17.9067 137.156 17.6437C136.523 16.6497 135.95 15.7117 135.355 14.8077C135.219 14.6011 135.081 14.3958 134.942 14.1917C134.824 14.0186 134.685 13.8613 134.528 13.7237ZM76.3657 25.1097C75.9787 25.2107 75.6377 25.4277 75.3087 25.8447L75.2627 25.9017C74.3447 26.9827 72.1927 27.2137 70.7927 26.5437C70.4557 26.3812 70.1484 26.1632 69.8837 25.8987C69.4673 25.478 69.1555 24.9653 68.9735 24.402C68.7915 23.8387 68.7443 23.2406 68.8357 22.6557H80.8297C81.0287 19.3927 80.5137 16.5127 77.7137 14.5757C72.0817 10.6787 64.3187 14.1117 63.6167 20.8687C63.3967 22.9837 63.6947 24.9527 64.5827 26.5397C65.4887 28.1597 67.0087 29.3797 69.2207 29.9537C71.2887 30.4907 73.3807 30.5277 75.4407 29.9517C76.4987 29.6557 77.4507 29.2377 78.2607 28.6367C79.3547 27.8237 80.1857 26.6767 80.6587 25.0437C79.8047 25.0437 79.0507 25.0557 78.3297 25.0537C77.9597 25.0527 77.5997 25.0467 77.2377 25.0347C76.9449 25.0171 76.6512 25.0424 76.3657 25.1097ZM35.6147 6.91571C39.0047 10.5397 41.0957 15.4057 41.0467 20.7417C40.9457 31.6617 32.0877 40.4947 21.0887 40.4807C10.0957 40.6037 0.922715 31.3507 0.982715 20.3137C1.02071 13.4437 4.55271 7.46871 9.79771 3.91971C13.1028 1.67456 17.0072 0.476562 21.0027 0.481706C26.6907 0.494706 31.9237 2.96971 35.6157 6.91571H35.6147ZM51.9317 13.5677V29.8257H56.7097C56.7097 29.2517 56.7057 28.7837 56.7097 28.3157C56.7297 26.0197 56.6627 23.7197 56.7917 21.4307C56.9677 18.3037 58.9997 16.9387 61.9947 17.7947C62.1027 17.8247 62.2177 17.8317 62.4047 17.8617C62.6007 16.9217 62.8017 16.0017 62.9837 15.0787C63.2767 13.5827 63.1537 13.4057 61.6427 13.1927C61.29 13.1504 60.9342 13.1407 60.5797 13.1637C58.8017 13.2457 57.6277 14.2837 56.5867 15.9707L56.4517 13.5677H51.9317ZM122.075 29.8157H126.843V13.5677H122.075V29.8157ZM113.899 29.1317C114.125 29.4557 114.513 29.8697 114.843 29.8857C116.488 29.9627 118.139 29.9207 120.056 29.9207L113.344 20.0747L119.487 13.5107C118.371 13.5107 117.573 13.6107 116.808 13.4907C114.717 13.1647 113.225 13.9047 111.983 15.6167C110.937 17.0587 109.616 18.2997 108.416 19.6307L108.145 19.5067V5.33071H103.295V29.8507H108.115C108.365 27.6367 107.388 25.0617 110.231 23.7187C111.425 25.4897 112.641 27.3257 113.899 29.1317ZM96.1007 29.8307V27.8257C95.2707 28.4877 94.6007 29.2237 93.7707 29.6527C90.2407 31.4797 85.6077 29.8827 84.0017 26.2567C82.6877 23.2877 82.7177 20.2347 84.0877 17.2877C85.5817 14.0727 89.2317 12.3627 92.6357 13.3777C93.8527 13.7407 94.8997 14.6697 95.9557 15.2997V5.33171L100.191 5.30971V29.8097L96.1007 29.8297V29.8307ZM121.882 9.53171H126.928V5.32771H121.882V9.53271V9.53171ZM32.1947 27.2717C33.0857 27.5077 34.0417 27.5037 35.1487 27.6237C34.8897 28.1247 34.7167 28.5477 34.4707 28.9257C30.8207 34.5317 24.7307 37.0057 19.0177 36.2537C11.9257 35.3207 6.85071 30.2137 5.43571 23.7517C3.51571 14.9837 9.53471 6.37471 18.6627 4.80171C27.9917 3.19371 36.9757 10.7337 36.9337 20.1357C36.9257 22.0877 35.8147 23.3347 34.0657 23.3557C32.3387 23.3757 31.1687 22.1527 31.0627 20.2157C30.7897 15.2157 27.6147 11.5727 22.6527 10.5617C17.0057 9.41171 11.1827 14.1207 10.9527 19.8687C10.7627 24.6167 13.6757 28.5187 17.5867 29.9617C21.7167 31.4847 26.0837 30.1877 29.0597 26.5517C29.1847 26.3997 29.2937 26.2347 29.3897 26.1017C30.4497 26.5567 31.2907 27.0327 32.1947 27.2717ZM20.9347 26.3617C17.7407 26.3337 15.0877 23.5987 15.1397 20.3867C15.1907 17.1957 17.9207 14.5547 21.1327 14.5897C24.3227 14.6247 26.9647 17.3517 26.9257 20.5727C26.8867 23.7607 24.1677 26.3887 20.9357 26.3607L20.9347 26.3617ZM87.8017 24.7137C88.3287 25.9897 89.4057 26.6657 90.7817 26.7357C92.1497 26.8047 93.2367 26.2307 93.9887 25.0647C95.1687 23.2347 95.1357 20.0617 93.9127 18.2877C92.4647 16.1857 89.4397 16.1637 88.1527 18.3597C87.5557 19.3777 87.3477 20.6247 86.9877 21.6987C87.2827 22.8297 87.4317 23.8177 87.8017 24.7137ZM68.9307 19.7817C68.9737 17.7487 70.4567 16.4307 72.5757 16.4857C74.5197 16.5357 75.6767 17.7617 75.6157 19.7817H68.9307Z" fill="#B2B2B2"/>
</svg>
