<svg width="94" height="53" viewBox="0 0 94 53" fill="none" xmlns="http://www.w3.org/2000/svg">
<path fill-rule="evenodd" clip-rule="evenodd" d="M8.70942 21.2546H0.982422V52.6286H9.34442C9.34442 52.6286 9.34442 36.2506 9.13242 35.0806C9.13242 35.0806 13.6374 42.0826 21.3594 52.6216H28.4114V21.2736H20.1094C20.1094 21.2736 20.2434 36.2976 20.3324 37.7776C20.3324 37.7776 18.1004 33.5616 8.70942 21.2546Z" fill="#B2B2B2"/>
<path opacity="0.6" fill-rule="evenodd" clip-rule="evenodd" d="M49.1504 8.79369C44.6974 8.79369 41.0874 12.4207 41.0874 16.8957C41.0874 21.3707 44.6974 24.9977 49.1504 24.9977C53.6044 24.9977 57.2144 21.3707 57.2144 16.8957C57.2144 12.4207 53.6044 8.79369 49.1504 8.79369ZM65.6054 16.9257C65.6054 26.0077 58.2784 33.3697 49.2404 33.3697C40.2014 33.3697 32.8744 26.0077 32.8744 16.9257C32.8744 7.84369 40.2014 0.481689 49.2404 0.481689C58.2784 0.481689 65.6054 7.84369 65.6054 16.9257Z" fill="#B2B2B2"/>
<path fill-rule="evenodd" clip-rule="evenodd" d="M93.5164 4.42864L89.2914 11.3046C89.2914 11.3046 85.7214 8.31464 80.6614 8.31464C77.0914 8.31464 77.4184 9.95964 77.4184 10.1986C77.4184 10.4386 77.1064 11.7686 83.2804 13.0986C89.4224 14.4216 93.9334 16.6566 93.8734 23.2636C93.8154 29.7216 88.9334 33.1906 80.9004 33.1906C72.8664 33.1906 67.9264 29.3036 67.9264 29.3036L72.0334 22.5466C72.0334 22.5466 76.1994 25.5796 81.4354 25.6566C85.5424 25.7166 85.3034 23.8616 85.3034 23.8616C85.3034 22.3076 83.3994 21.4096 77.7464 20.2146C72.0924 19.0186 68.7004 16.0886 68.7004 11.2446C68.7004 6.07264 71.8104 0.752641 81.0344 0.735641C89.0084 0.720641 93.5164 4.42864 93.5164 4.42864Z" fill="#B2B2B2"/>
</svg>
