<svg width="62" height="55" viewBox="0 0 62 55" fill="none" xmlns="http://www.w3.org/2000/svg">
<path fill-rule="evenodd" clip-rule="evenodd" d="M4.59295 54.3789V49.5539L61.953 28.3969V33.2229L4.59295 54.3789ZM26.323 38.2039C26.323 38.2039 25.699 37.6869 25.71 35.8339C25.719 34.4979 25.71 30.5099 25.71 30.5099C25.71 29.7059 25.416 29.3399 24.899 29.3399C24.677 29.3389 24.382 29.4109 24.012 29.5559L21.799 30.3549V39.8599L16.634 41.7449V14.3309L25.194 11.2099C26.3 10.7739 27.26 10.5569 27.999 10.6319C29.62 10.6359 30.286 11.6609 30.286 14.0009V20.3619C30.286 22.0439 29.013 24.1319 27.093 25.1499V25.2249C27.388 25.1509 27.683 25.1519 27.904 25.1519C29.307 25.1559 30.91 26.0419 30.877 27.8519C30.877 27.8519 30.86 32.5549 30.877 34.1499C30.894 35.8829 31.489 36.3169 31.489 36.3169L26.323 38.2039ZM25.047 17.6429C25.047 16.7659 24.899 16.4709 24.382 16.4699C24.162 16.4699 23.866 16.4679 23.424 16.6139L21.799 17.1949V25.6749L23.349 25.0949C24.604 24.6599 25.047 23.9299 25.047 22.6869V17.6429ZM50.517 29.9199V2.42995L55.681 0.543945V23.4269L61.953 21.1039V25.7119L50.517 29.9199ZM9.88195 21.5499V44.2139L4.71495 46.1009V23.4369L0.139954 25.1059V20.3539L14.383 15.1279V19.8799L9.88195 21.5499ZM42.367 32.7089L37.94 34.3789C37.053 33.3519 32.444 8.70295 32.444 8.70295L37.61 6.81595C37.61 6.81595 39.635 23.4269 40.152 24.3059C40.6689 23.0629 42.782 5.10795 42.782 5.10795L47.947 3.22095C47.947 3.22095 43.177 31.2479 42.367 32.7089Z" fill="#838997"/>
</svg>
