<svg width="156" height="49" viewBox="0 0 156 49" fill="none" xmlns="http://www.w3.org/2000/svg">
<path fill-rule="evenodd" clip-rule="evenodd" d="M64.8784 9.77169C64.3023 9.4258 63.69 9.14412 63.0524 8.93169C62.3606 8.70288 61.636 8.58904 60.9074 8.59469C60.5134 8.59469 60.1534 8.63169 59.8274 8.70769C59.5303 8.77258 59.2449 8.88288 58.9814 9.03469C58.759 9.16317 58.5691 9.34109 58.4264 9.55469C58.292 9.76383 58.2224 10.0081 58.2264 10.2567C58.2184 10.4899 58.2947 10.7182 58.4414 10.8997C58.5844 11.0697 58.7854 11.2167 59.0414 11.3337C59.2974 11.4537 59.6034 11.5537 59.9574 11.6367C60.3104 11.7187 60.6974 11.7927 61.1174 11.8587L61.9074 11.9877C62.5047 12.079 63.0924 12.2243 63.6634 12.4217C64.1723 12.5949 64.6501 12.8488 65.0784 13.1737C65.4784 13.4837 65.7944 13.8597 66.0254 14.3017C66.2544 14.7437 66.3694 15.2647 66.3694 15.8647C66.3694 16.6297 66.2124 17.2947 65.8994 17.8587C65.5903 18.417 65.1576 18.8973 64.6344 19.2627C64.078 19.6475 63.4577 19.9306 62.8024 20.0987C62.0959 20.2849 61.3681 20.3781 60.6374 20.3757C60.1044 20.3757 59.5674 20.3367 59.0274 20.2617C58.4941 20.1871 57.9669 20.0731 57.4504 19.9207C56.9489 19.7716 56.4605 19.5813 55.9904 19.3517C55.5453 19.1351 55.1246 18.8716 54.7354 18.5657L56.1854 16.3397C56.4384 16.5377 56.7294 16.7267 57.0554 16.9097C57.767 17.2963 58.5351 17.5683 59.3314 17.7157C59.7554 17.7927 60.1934 17.8327 60.6464 17.8327C61.0334 17.8327 61.3954 17.7967 61.7324 17.7237C62.0694 17.6517 62.3614 17.5437 62.6084 17.3977C62.8377 17.2679 63.0357 17.0894 63.1884 16.8747C63.3284 16.6687 63.3984 16.4327 63.3984 16.1617C63.3984 15.9247 63.3354 15.7197 63.2084 15.5477C63.0583 15.3576 62.8645 15.2066 62.6434 15.1077C62.3456 14.9687 62.0334 14.8627 61.7124 14.7917C61.2874 14.6917 60.8588 14.6076 60.4274 14.5397L59.5374 14.4007C58.9548 14.3116 58.3819 14.1676 57.8264 13.9707C57.3354 13.7997 56.8784 13.5435 56.4764 13.2137C56.0973 12.8989 55.793 12.5037 55.5854 12.0567C55.3714 11.6017 55.2654 11.0607 55.2654 10.4337C55.2654 9.71569 55.4164 9.08169 55.7204 8.52969C56.0244 7.97969 56.4304 7.52069 56.9404 7.15569C57.479 6.77587 58.0806 6.49452 58.7174 6.32469C59.4113 6.13413 60.1279 6.03925 60.8474 6.04269C61.3344 6.04269 61.8074 6.06969 62.2634 6.12669C63.1707 6.23725 64.0568 6.48051 64.8934 6.84869C65.3234 7.03669 65.7594 7.25869 66.1994 7.51569L64.8794 9.77169H64.8784ZM74.1314 10.2867C74.7994 10.2867 75.4194 10.4147 75.9924 10.6717C76.5552 10.921 77.0622 11.2808 77.4834 11.7297C77.9034 12.1787 78.2334 12.7107 78.4734 13.3277C78.7134 13.9437 78.8334 14.6117 78.8334 15.3307C78.8397 16.0145 78.7194 16.6937 78.4784 17.3337C78.2574 17.9255 77.9228 18.4683 77.4934 18.9317C77.0734 19.3797 76.5764 19.7317 76.0034 19.9897C75.4173 20.2495 74.7825 20.3811 74.1414 20.3757C73.4884 20.3757 72.9294 20.2607 72.4664 20.0347C72.0163 19.8172 71.6162 19.5087 71.2914 19.1287V24.0847H68.6904V10.5437H71.2404V11.6017C71.5604 11.2057 71.9564 10.8877 72.4264 10.6467C72.8964 10.4067 73.4644 10.2867 74.1314 10.2867ZM80.9644 20.1287H83.5744V10.5437H80.9644V20.1287ZM90.4074 10.2867C91.0604 10.2867 91.6194 10.4007 92.0824 10.6327C92.5464 10.8627 92.9384 11.1657 93.2584 11.5427V5.88369H95.8594V20.1277H93.3094V19.0697C92.9894 19.4587 92.5924 19.7737 92.1174 20.0147C91.6454 20.2547 91.0744 20.3757 90.4074 20.3757C89.767 20.3808 89.1329 20.2492 88.5474 19.9897C87.9847 19.7403 87.4777 19.3805 87.0564 18.9317C86.6274 18.4681 86.2928 17.9253 86.0714 17.3337C85.8299 16.6938 85.7092 16.0146 85.7154 15.3307C85.7154 14.6107 85.8334 13.9437 86.0714 13.3277C86.3074 12.7107 86.6364 12.1777 87.0564 11.7297C87.4764 11.2817 87.9724 10.9297 88.5464 10.6717C89.1322 10.412 89.7667 10.2807 90.4074 10.2867ZM102.902 10.2857C103.602 10.2857 104.242 10.4077 104.817 10.6517C105.38 10.8862 105.887 11.2372 106.304 11.6817C106.717 12.1217 107.039 12.6537 107.268 13.2717C107.498 13.8937 107.614 14.5757 107.614 15.3207C107.615 15.6114 107.598 15.9019 107.564 16.1907H100.692C100.758 16.5407 100.868 16.8407 101.022 17.0867C101.175 17.3337 101.36 17.5407 101.577 17.7047C101.794 17.8697 102.038 17.9897 102.312 18.0657C102.585 18.1417 102.875 18.1787 103.182 18.1787C103.602 18.1787 104.028 18.1007 104.458 17.9417C104.888 17.7837 105.28 17.5567 105.633 17.2597L107.163 18.9217C106.625 19.4141 105.99 19.7897 105.298 20.0247C104.567 20.2647 103.802 20.3833 103.032 20.3757C102.292 20.3757 101.613 20.2547 100.997 20.0147C100.402 19.788 99.8608 19.4408 99.4064 18.9947C98.955 18.545 98.6021 18.0063 98.3704 17.4127C98.1234 16.7967 98.0004 16.1127 98.0004 15.3597C98.0004 14.6077 98.1204 13.9207 98.3604 13.2987C98.5843 12.702 98.9265 12.1568 99.3664 11.6957C99.8037 11.2459 100.33 10.8921 100.911 10.6567C101.544 10.4032 102.22 10.2771 102.901 10.2857H102.902ZM115.006 10.2857C115.286 10.2857 115.538 10.3037 115.762 10.3397C115.984 10.3757 116.187 10.4277 116.367 10.4937L115.977 13.0557C115.736 12.9551 115.485 12.8804 115.227 12.8327C114.954 12.7782 114.675 12.75 114.396 12.7487C114.096 12.7487 113.82 12.7947 113.571 12.8877C113.33 12.9746 113.11 13.1127 112.926 13.2927C112.746 13.4707 112.606 13.6957 112.506 13.9647C112.401 14.2666 112.35 14.5849 112.356 14.9047V20.1287H109.744V10.5437H112.275V11.5917C112.556 11.1589 112.953 10.8143 113.421 10.5977C113.877 10.3897 114.406 10.2857 115.006 10.2857ZM64.8784 29.7837C64.3023 29.4378 63.69 29.1561 63.0524 28.9437C62.3606 28.7149 61.636 28.601 60.9074 28.6067C60.5134 28.6067 60.1534 28.6437 59.8274 28.7197C59.5303 28.7846 59.2449 28.8949 58.9814 29.0467C58.759 29.1752 58.5691 29.3531 58.4264 29.5667C58.292 29.7758 58.2224 30.0201 58.2264 30.2687C58.2184 30.5019 58.2947 30.7302 58.4414 30.9117C58.5844 31.0827 58.7854 31.2287 59.0414 31.3467C59.2974 31.4647 59.6034 31.5667 59.9574 31.6487C60.3104 31.7317 60.6974 31.8047 61.1174 31.8707L61.9074 32.0007C62.5047 32.092 63.0924 32.2373 63.6634 32.4347C64.1723 32.6079 64.6501 32.8618 65.0784 33.1867C65.4784 33.4967 65.7944 33.8717 66.0254 34.3137C66.2544 34.7557 66.3694 35.2767 66.3694 35.8767C66.3694 36.6427 66.2124 37.3067 65.8994 37.8707C65.5903 38.429 65.1576 38.9093 64.6344 39.2747C64.078 39.6595 63.4577 39.9426 62.8024 40.1107C62.0959 40.2969 61.3681 40.3901 60.6374 40.3877C60.1044 40.3877 59.5674 40.3497 59.0274 40.2737C58.4941 40.1991 57.9669 40.0851 57.4504 39.9327C56.9489 39.7836 56.4605 39.5933 55.9904 39.3637C55.5453 39.1471 55.1246 38.8836 54.7354 38.5777L56.1854 36.3517C56.4384 36.5497 56.7294 36.7397 57.0554 36.9217C57.767 37.3083 58.5351 37.5803 59.3314 37.7277C59.7554 37.8057 60.1934 37.8447 60.6464 37.8447C61.0334 37.8447 61.3954 37.8087 61.7324 37.7367C62.0694 37.6637 62.3614 37.5557 62.6084 37.4107C62.8378 37.2806 63.0358 37.1017 63.1884 36.8867C63.3284 36.6807 63.3984 36.4447 63.3984 36.1747C63.3984 35.9367 63.3354 35.7317 63.2084 35.5607C63.0583 35.3706 62.8645 35.2196 62.6434 35.1207C62.3456 34.9813 62.0334 34.875 61.7124 34.8037C61.2874 34.7037 60.8588 34.6196 60.4274 34.5517L59.5374 34.4137C58.9548 34.3243 58.3819 34.18 57.8264 33.9827C57.3354 33.8117 56.8784 33.5555 56.4764 33.2257C56.0973 32.9109 55.793 32.5157 55.5854 32.0687C55.3714 31.6147 55.2654 31.0727 55.2654 30.4467C55.2654 29.7277 55.4164 29.0937 55.7204 28.5427C56.0181 27.9981 56.4352 27.528 56.9404 27.1677C57.4791 26.7882 58.0807 26.5072 58.7174 26.3377C59.4112 26.1468 60.1278 26.0516 60.8474 26.0547C61.3344 26.0547 61.8074 26.0827 62.2634 26.1387C63.1707 26.2492 64.0568 26.4925 64.8934 26.8607C65.3234 27.0487 65.7594 27.2707 66.1994 27.5287L64.8794 29.7837H64.8784ZM75.5334 32.8497H72.0224V36.3517C72.0224 36.6487 72.0604 36.9017 72.1374 37.1087C72.2134 37.3167 72.3174 37.4847 72.4474 37.6127C72.5764 37.7427 72.7304 37.8357 72.9074 37.8947C73.0844 37.9547 73.2724 37.9847 73.4724 37.9847C73.7854 37.9847 74.1004 37.9207 74.4174 37.7907C74.7344 37.6627 75.0254 37.5197 75.2934 37.3607L76.2534 39.3787C75.8264 39.6687 75.3564 39.9087 74.8434 40.1007C74.3294 40.2917 73.7284 40.3877 73.0424 40.3877C71.8344 40.3877 70.9284 40.0607 70.3214 39.4077C69.7144 38.7557 69.4114 37.8057 69.4114 36.5597V32.8497H67.5394V30.5557H69.4104V27.7077H72.0224V30.5557H75.5324V32.8497H75.5334ZM83.0954 30.2987C83.3754 30.2987 83.6274 30.3157 83.8514 30.3517C84.0734 30.3887 84.2764 30.4397 84.4564 30.5067L84.0664 33.0677C83.825 32.9671 83.5736 32.8924 83.3164 32.8447C83.0427 32.7905 82.7644 32.7627 82.4854 32.7617C82.1854 32.7617 81.9094 32.8067 81.6604 32.8997C81.4186 32.9869 81.1986 33.1254 81.0154 33.3057C80.8354 33.4827 80.6954 33.7077 80.5954 33.9777C80.4944 34.2477 80.4454 34.5607 80.4454 34.9177V40.1407H77.8324V30.5557H80.3634V31.6047C80.6439 31.1716 81.0412 30.8266 81.5094 30.6097C81.9654 30.4017 82.4944 30.2987 83.0944 30.2987H83.0954ZM95.4504 40.1407H92.9004V39.0817C92.5734 39.4765 92.1674 39.7984 91.7084 40.0267C91.2354 40.2667 90.6654 40.3877 89.9984 40.3877C89.3581 40.3932 88.724 40.2619 88.1384 40.0027C87.5756 39.753 87.0686 39.3929 86.6474 38.9437C86.2181 38.4805 85.8832 37.938 85.6614 37.3467C85.4201 36.7064 85.2998 36.0269 85.3064 35.3427C85.3064 34.6237 85.4244 33.9557 85.6614 33.3407C85.8984 32.7227 86.2274 32.1907 86.6474 31.7417C87.0674 31.2937 87.5634 30.9417 88.1374 30.6847C88.7231 30.4246 89.3576 30.293 89.9984 30.2987C90.6654 30.2987 91.2354 30.4187 91.7084 30.6587C92.1824 30.8997 92.5794 31.2187 92.9004 31.6137V30.5557H95.4504V40.1407ZM105.224 32.8507H101.713V36.3507C101.713 36.6487 101.751 36.9007 101.828 37.1087C101.904 37.3167 102.008 37.4847 102.138 37.6127C102.268 37.7427 102.421 37.8357 102.598 37.8947C102.775 37.9547 102.963 37.9847 103.163 37.9847C103.477 37.9847 103.792 37.9207 104.109 37.7907C104.425 37.6627 104.717 37.5197 104.984 37.3607L105.944 39.3787C105.517 39.6687 105.047 39.9087 104.534 40.1007C104.02 40.2917 103.42 40.3877 102.734 40.3877C101.525 40.3877 100.619 40.0607 100.012 39.4077C99.4054 38.7557 99.1024 37.8057 99.1024 36.5597V32.8497H97.2314V30.5557H99.1014V27.7077H101.713V30.5557H105.224V32.8497V32.8507ZM111.706 30.2977C112.406 30.2977 113.046 30.4197 113.621 30.6647C114.184 30.8989 114.691 31.2496 115.108 31.6937C115.521 32.1337 115.843 32.6657 116.072 33.2847C116.303 33.9047 116.418 34.5877 116.418 35.3327C116.419 35.6234 116.402 35.9139 116.368 36.2027H109.496C109.562 36.5527 109.672 36.8527 109.826 37.0987C109.979 37.3467 110.165 37.5527 110.381 37.7167C110.598 37.8817 110.842 38.0027 111.116 38.0777C111.389 38.1537 111.68 38.1907 111.987 38.1907C112.407 38.1907 112.832 38.1127 113.262 37.9547C113.692 37.7957 114.084 37.5687 114.437 37.2727L115.967 38.9337C115.429 39.426 114.794 39.8016 114.103 40.0367C113.372 40.2768 112.606 40.3954 111.836 40.3877C111.096 40.3877 110.417 40.2677 109.801 40.0277C109.206 39.801 108.665 39.4538 108.21 39.0077C107.759 38.5577 107.406 38.0186 107.174 37.4247C106.927 36.8087 106.804 36.1247 106.804 35.3727C106.804 34.6207 106.924 33.9327 107.164 33.3107C107.388 32.714 107.73 32.1688 108.17 31.7077C108.6 31.2627 109.115 30.9177 109.716 30.6697C110.349 30.4158 111.025 30.2894 111.706 30.2977ZM122.411 30.2977C123.091 30.2977 123.677 30.4167 124.171 30.6547C124.664 30.8927 125.077 31.2157 125.411 31.6247V30.5547H127.971V39.3497C127.971 40.1207 127.85 40.8117 127.606 41.4217C127.377 42.0112 127.018 42.5417 126.556 42.9737C126.081 43.4104 125.519 43.7426 124.906 43.9487C124.262 44.1727 123.541 44.2847 122.74 44.2847C121.969 44.284 121.201 44.1859 120.454 43.9927C120.097 43.8997 119.747 43.7793 119.408 43.6327C119.089 43.495 118.784 43.3259 118.498 43.1277L119.428 41.0207C119.916 41.3367 120.424 41.5797 120.955 41.7477C121.485 41.9167 122.043 41.9997 122.629 41.9997C123.036 41.9997 123.409 41.9457 123.746 41.8367C124.081 41.7287 124.372 41.5667 124.616 41.3517C124.86 41.1387 125.049 40.8717 125.186 40.5557C125.329 40.208 125.399 39.8345 125.391 39.4587V38.7857C125.055 39.1897 124.633 39.5142 124.156 39.7357C123.665 39.9657 123.084 40.0817 122.411 40.0817C121.828 40.0839 121.25 39.9644 120.714 39.7307C120.18 39.4978 119.698 39.1613 119.294 38.7407C118.871 38.2943 118.539 37.7704 118.314 37.1977C118.064 36.5599 117.94 35.8797 117.948 35.1947C117.948 34.4557 118.07 33.7867 118.313 33.1867C118.557 32.5867 118.883 32.0717 119.293 31.6437C119.696 31.221 120.179 30.883 120.714 30.6497C121.249 30.4155 121.827 30.2959 122.411 30.2987V30.2977ZM130.714 40.1397H133.324V30.5557H130.714V40.1397ZM132.004 25.7577C132.236 25.7577 132.455 25.8007 132.658 25.8867C132.857 25.9671 133.038 26.0863 133.19 26.2374C133.342 26.3885 133.463 26.5685 133.544 26.7667C133.631 26.9717 133.674 27.1897 133.674 27.4197C133.676 27.6375 133.634 27.8534 133.55 28.0547C133.467 28.2559 133.344 28.4385 133.189 28.5917C133.039 28.7397 132.862 28.8557 132.658 28.9387C132.45 29.0215 132.228 29.0632 132.004 29.0617C131.78 29.0634 131.557 29.0216 131.348 28.9387C131.151 28.8603 130.971 28.7428 130.82 28.5934C130.669 28.4439 130.549 28.2654 130.468 28.0687C130.384 27.8628 130.341 27.6422 130.343 27.4197C130.343 27.1897 130.384 26.9717 130.468 26.7677C130.551 26.5617 130.668 26.3857 130.818 26.2377C131.135 25.9274 131.561 25.7549 132.004 25.7577ZM140.366 30.2977C141.066 30.2977 141.706 30.4197 142.281 30.6647C142.844 30.8989 143.351 31.2496 143.768 31.6937C144.181 32.1337 144.503 32.6657 144.732 33.2847C144.963 33.9047 145.078 34.5877 145.078 35.3327C145.079 35.6234 145.062 35.9139 145.028 36.2027H138.156C138.222 36.5527 138.332 36.8527 138.486 37.0987C138.639 37.3467 138.824 37.5527 139.041 37.7167C139.258 37.8817 139.502 38.0027 139.776 38.0777C140.049 38.1537 140.34 38.1907 140.647 38.1907C141.067 38.1907 141.492 38.1127 141.922 37.9547C142.352 37.7957 142.744 37.5687 143.097 37.2727L144.627 38.9337C144.089 39.4261 143.454 39.8017 142.762 40.0367C142.031 40.2767 141.266 40.3953 140.496 40.3877C139.756 40.3877 139.077 40.2677 138.461 40.0277C137.866 39.801 137.325 39.4538 136.87 39.0077C136.419 38.5577 136.066 38.0186 135.834 37.4247C135.587 36.8087 135.464 36.1247 135.464 35.3727C135.464 34.6207 135.584 33.9327 135.824 33.3107C136.048 32.714 136.39 32.1688 136.83 31.7077C137.26 31.2627 137.775 30.9177 138.376 30.6697C139.009 30.4158 139.685 30.2894 140.366 30.2977ZM154.091 33.2257C153.632 33.0092 153.155 32.8322 152.665 32.6967C152.392 32.6201 152.115 32.559 151.835 32.5137C151.559 32.4683 151.28 32.4449 151 32.4437C150.5 32.4437 150.126 32.5237 149.88 32.6817C149.633 32.8407 149.51 33.0517 149.51 33.3157C149.507 33.4427 149.551 33.5664 149.635 33.6617C149.729 33.7613 149.843 33.8388 149.97 33.8887C150.11 33.9477 150.276 33.9967 150.47 34.0327C150.664 34.0687 150.87 34.1027 151.09 34.1367L151.95 34.2647C153.004 34.4237 153.813 34.7367 154.376 35.2047C154.94 35.6727 155.222 36.3147 155.222 37.1337C155.222 37.6287 155.122 38.0767 154.922 38.4777C154.718 38.8839 154.42 39.235 154.051 39.5017C153.671 39.7817 153.204 40.0007 152.651 40.1557C152.038 40.3176 151.406 40.3957 150.771 40.3877C150.436 40.3877 150.085 40.3697 149.714 40.3337C149.338 40.2956 148.964 40.2345 148.594 40.1507C148.215 40.0637 147.842 39.948 147.479 39.8047C147.119 39.6631 146.777 39.4802 146.459 39.2597L147.489 37.3017C147.695 37.4397 147.916 37.5657 148.149 37.6777C148.664 37.9227 149.212 38.0892 149.775 38.1717C150.085 38.2187 150.423 38.2417 150.79 38.2417C151.397 38.2417 151.847 38.1617 152.14 38.0037C152.434 37.8447 152.58 37.6247 152.58 37.3417C152.58 37.1097 152.454 36.9257 152.2 36.7877C151.946 36.6477 151.537 36.5407 150.97 36.4617L150.18 36.3517C147.945 36.0487 146.829 35.0797 146.829 33.4437C146.829 32.9487 146.922 32.5087 147.109 32.1237C147.296 31.7367 147.565 31.4097 147.919 31.1387C148.272 30.8687 148.701 30.6627 149.205 30.5207C149.765 30.3714 150.342 30.2997 150.92 30.3077C151.306 30.3077 151.676 30.3267 152.026 30.3627C152.705 30.4356 153.372 30.5863 154.016 30.8117C154.333 30.9257 154.651 31.0597 154.971 31.2187L154.091 33.2257ZM21.8454 0.481689L12.0534 6.16169V16.7167L30.9584 5.68669L21.8454 0.481689ZM10.3174 7.11969L0.982422 12.3917V29.0217L10.3174 23.7447V7.11969ZM38.0854 9.75369L0.982422 30.9367V36.2187L5.60942 38.8587L42.7134 17.6777V12.3947L38.0854 9.75469V9.75369ZM21.8494 48.1317L31.6424 42.4537V31.8987L12.7364 42.9277L21.8494 48.1317ZM33.3794 41.4967L42.7134 36.2207V19.5887L33.3804 24.8687V41.4967H33.3794ZM123.071 32.6727C122.697 32.6727 122.361 32.7387 122.06 32.8697C121.77 32.9955 121.508 33.1792 121.29 33.4097C121.075 33.6405 120.908 33.9127 120.8 34.2097C120.686 34.5167 120.63 34.8447 120.63 35.1947C120.63 35.5447 120.686 35.8707 120.8 36.1747C120.908 36.4714 121.076 36.7429 121.292 36.9725C121.509 37.2021 121.77 37.3849 122.06 37.5097C122.38 37.645 122.724 37.7125 123.07 37.7077C123.43 37.7077 123.761 37.6427 124.06 37.5147C124.351 37.3927 124.614 37.2119 124.832 36.9838C125.05 36.7556 125.218 36.4849 125.326 36.1887C125.442 35.8827 125.501 35.5507 125.501 35.1947C125.504 34.8538 125.445 34.5153 125.326 34.1957C125.218 33.8978 125.049 33.6252 124.831 33.3947C124.617 33.1707 124.361 32.9947 124.061 32.8647C123.748 32.7335 123.411 32.6681 123.071 32.6727ZM90.4784 32.7027C90.0984 32.7027 89.7534 32.7707 89.4434 32.9097C89.1426 33.0411 88.8724 33.2339 88.6503 33.4756C88.4282 33.7174 88.259 34.0028 88.1534 34.3137C88.0351 34.6441 87.9755 34.9927 87.9774 35.3437C87.9774 35.7117 88.0364 36.0557 88.1524 36.3757C88.2684 36.6957 88.4364 36.9757 88.6524 37.2127C88.8694 37.4497 89.1324 37.6377 89.4424 37.7757C89.7524 37.9147 90.0984 37.9837 90.4784 37.9837C90.8514 37.9837 91.1924 37.9177 91.4984 37.7857C91.8054 37.6547 92.0684 37.4697 92.2884 37.2327C92.5084 36.9947 92.6794 36.7147 92.7994 36.3917C92.9194 36.0687 92.9794 35.7187 92.9794 35.3427C92.9794 34.9667 92.9194 34.6167 92.7994 34.2947C92.6863 33.9839 92.513 33.6984 92.2894 33.4547C92.0681 33.2159 91.7989 33.0265 91.4994 32.8987C91.1764 32.7642 90.8293 32.6972 90.4794 32.7017L90.4784 32.7027ZM111.686 32.5227C111.066 32.5227 110.576 32.6937 110.216 33.0327C109.856 33.3727 109.619 33.8427 109.506 34.4427H113.798C113.678 33.8227 113.438 33.3477 113.078 33.0187C112.717 32.6887 112.253 32.5237 111.686 32.5237V32.5227ZM140.346 32.5227C139.726 32.5227 139.236 32.6937 138.876 33.0327C138.516 33.3727 138.279 33.8427 138.166 34.4427H142.458C142.338 33.8227 142.098 33.3477 141.738 33.0187C141.377 32.6887 140.913 32.5237 140.346 32.5237V32.5227ZM90.8884 12.6907C90.5084 12.6907 90.1624 12.7607 89.8524 12.8977C89.5515 13.0292 89.2813 13.2221 89.0592 13.4641C88.837 13.706 88.6678 13.9916 88.5624 14.3027C88.4442 14.6328 88.3847 14.9811 88.3864 15.3317C88.3864 15.7007 88.4454 16.0447 88.5624 16.3647C88.6784 16.6847 88.8454 16.9637 89.0624 17.2007C89.2784 17.4387 89.5424 17.6267 89.8524 17.7647C90.1624 17.9037 90.5084 17.9727 90.8884 17.9727C91.2614 17.9727 91.6014 17.9067 91.9084 17.7747C92.2144 17.6437 92.4784 17.4577 92.6984 17.2217C92.9184 16.9837 93.0884 16.7037 93.2084 16.3797C93.3284 16.0577 93.3884 15.7077 93.3884 15.3317C93.3884 14.9557 93.3284 14.6057 93.2084 14.2837C93.0953 13.9729 92.922 13.6874 92.6984 13.4437C92.4771 13.2049 92.2079 13.0155 91.9084 12.8877C91.5854 12.7532 91.2383 12.6862 90.8884 12.6907ZM82.2554 5.74669C82.5831 5.74435 82.9042 5.83899 83.1782 6.01871C83.4522 6.19843 83.667 6.4552 83.7954 6.75669C83.8824 6.96069 83.9254 7.17769 83.9254 7.40869C83.9264 7.62646 83.8841 7.84225 83.8008 8.04348C83.7175 8.2447 83.595 8.42732 83.4404 8.58069C83.2904 8.72869 83.1134 8.84469 82.9094 8.92669C82.7016 9.01021 82.4794 9.05234 82.2554 9.05069C82.0214 9.05069 81.8024 9.00969 81.5994 8.92669C81.4019 8.84805 81.2222 8.73051 81.0711 8.58106C80.9199 8.4316 80.8003 8.25328 80.7194 8.05669C80.6348 7.85119 80.592 7.63091 80.5934 7.40869C80.5934 7.17769 80.6354 6.96069 80.7194 6.75569C80.7987 6.55698 80.9177 6.3765 81.0689 6.22521C81.2202 6.07393 81.4007 5.95501 81.5994 5.87569C81.8024 5.78869 82.0214 5.74669 82.2554 5.74669ZM73.6524 12.6907C73.3038 12.6856 72.9579 12.7527 72.6364 12.8877C72.3388 13.0157 72.0714 13.2048 71.8514 13.4427C71.6314 13.6807 71.4614 13.9607 71.3414 14.2827C71.2194 14.6188 71.1584 14.9741 71.1614 15.3317C71.1614 15.7077 71.2214 16.0577 71.3414 16.3797C71.4614 16.7037 71.6314 16.9837 71.8514 17.2217C72.0714 17.4577 72.3324 17.6437 72.6364 17.7747C72.9404 17.9067 73.2794 17.9727 73.6524 17.9727C74.01 17.9785 74.3646 17.9076 74.6924 17.7647C74.9917 17.6327 75.2604 17.4402 75.4815 17.1992C75.7027 16.9583 75.8715 16.6741 75.9774 16.3647C76.0944 16.0447 76.1534 15.7007 76.1534 15.3317C76.1534 14.9687 76.0944 14.6257 75.9774 14.3017C75.8679 13.9914 75.698 13.7059 75.4774 13.4617C75.2571 13.222 74.9899 13.0301 74.6924 12.8977C74.3644 12.7555 74.0099 12.6849 73.6524 12.6907ZM102.882 12.5127C102.262 12.5127 101.772 12.6827 101.412 13.0227C101.052 13.3627 100.814 13.8307 100.702 14.4317H104.993C104.873 13.8117 104.633 13.3367 104.273 13.0077C103.913 12.6777 103.448 12.5127 102.883 12.5127H102.882Z" fill="#B2B2B2"/>
</svg>
