<svg width="184" height="30" viewBox="0 0 184 30" fill="none" xmlns="http://www.w3.org/2000/svg">
<path fill-rule="evenodd" clip-rule="evenodd" d="M1.08242 17.2817C1.08242 24.0817 6.55142 29.6817 13.4124 29.6817C17.2894 29.6817 20.6704 27.8817 22.9574 25.0817C23.8524 26.1817 25.4434 28.3817 25.7414 28.9817C25.7414 28.9817 27.5314 26.2817 28.5254 25.0817C30.8124 27.8817 34.1934 29.6817 38.0714 29.6817C44.8324 29.6817 50.4014 24.1817 50.4014 17.2817C50.4014 14.5817 49.5064 12.0817 48.0144 9.98169C48.2134 8.58169 49.2074 6.58169 50.5004 5.08169H42.2474C38.0714 2.28169 32.3044 0.481689 25.7414 0.481689C19.1794 0.481689 13.0144 2.28169 8.83842 5.08169H0.982422C2.27542 6.58169 3.17042 8.58169 3.46842 9.98169C1.97742 12.0817 1.08242 14.5817 1.08242 17.2817ZM48.0144 17.2817C48.0144 22.7817 43.5404 27.2817 38.0714 27.2817C32.6024 27.2817 28.1284 22.7817 28.1284 17.2817C28.1284 11.7817 32.6024 7.28169 38.0714 7.28169C43.5404 7.38169 48.0144 11.7817 48.0144 17.2817ZM25.7414 2.58169C30.1164 2.58169 34.1934 3.38169 37.6734 4.98169C31.0114 5.18169 25.7414 10.6817 25.7414 17.3817C25.7414 10.5817 20.2724 4.98169 13.4114 4.98169C16.9914 3.38169 21.3664 2.58169 25.7414 2.58169ZM13.4114 7.38169C18.8814 7.38169 23.3554 11.8817 23.3554 17.3817C23.3554 22.8817 18.8804 27.3817 13.4114 27.3817C7.94342 27.3817 3.46842 22.8817 3.46842 17.3817C3.56842 11.7817 7.94342 7.38169 13.4114 7.38169ZM38.0714 23.2817C41.3524 23.2817 44.0374 20.5817 44.0374 17.2817C44.0374 13.9817 41.3524 11.2817 38.0714 11.2817C34.7904 11.2817 32.1054 13.9817 32.1054 17.2817C32.1054 20.5817 34.7904 23.2817 38.0714 23.2817ZM13.3124 23.2817C16.5934 23.2817 19.2784 20.5817 19.2784 17.2817C19.2784 13.9817 16.5934 11.2817 13.3124 11.2817C10.0314 11.2817 7.34642 13.9817 7.34642 17.2817C7.34642 20.5817 10.0314 23.2817 13.3124 23.2817ZM13.3124 13.0817C15.5994 13.0817 17.4884 14.9817 17.4884 17.2817C17.4884 19.5817 15.5994 21.4817 13.3124 21.4817C11.0254 21.4817 9.13642 19.5817 9.13642 17.2817C9.13642 14.9817 11.0254 13.0817 13.3124 13.0817ZM38.0714 13.0817C40.3584 13.0817 42.2474 14.9817 42.2474 17.2817C42.2474 19.5817 40.3574 21.4817 38.0714 21.4817C35.7844 21.4817 33.8954 19.5817 33.8954 17.2817C33.8954 14.9817 35.7844 13.0817 38.0714 13.0817ZM13.0144 19.2817C13.5449 19.2817 14.0536 19.071 14.4286 18.6959C14.8037 18.3208 15.0144 17.8121 15.0144 17.2817C15.0144 16.7513 14.8037 16.2425 14.4286 15.8675C14.0536 15.4924 13.5449 15.2817 13.0144 15.2817C12.484 15.2817 11.9753 15.4924 11.6002 15.8675C11.2251 16.2425 11.0144 16.7513 11.0144 17.2817C11.0144 17.8121 11.2251 18.3208 11.6002 18.6959C11.9753 19.071 12.484 19.2817 13.0144 19.2817ZM37.7734 19.2817C38.3039 19.2817 38.8126 19.071 39.1876 18.6959C39.5627 18.3208 39.7734 17.8121 39.7734 17.2817C39.7734 16.7513 39.5627 16.2425 39.1876 15.8675C38.8126 15.4924 38.3039 15.2817 37.7734 15.2817C37.243 15.2817 36.7343 15.4924 36.3592 15.8675C35.9841 16.2425 35.7734 16.7513 35.7734 17.2817C35.7734 17.8121 35.9841 18.3208 36.3592 18.6959C36.7343 19.071 37.243 19.2817 37.7734 19.2817ZM72.7334 7.42269L70.1004 8.20669V10.5597H68.0864V12.7567H70.1004V19.5017C70.1004 22.4817 71.3394 24.0507 73.8174 24.0507C74.7474 24.0507 75.3664 23.8937 75.9864 23.7367L75.8314 21.6967H75.6764C75.3664 21.8547 74.9014 21.8547 74.2824 21.8547C73.6624 21.8547 73.1974 21.6977 73.0424 21.2267C72.7324 20.9127 72.5784 20.2857 72.5784 19.3447V12.5997H75.9864V10.4037H72.5784V7.42369H72.7334V7.42269ZM84.5044 10.2467C83.7294 10.2467 82.9544 10.5597 82.1804 11.0307C81.5604 11.5007 81.0964 11.9717 80.7864 12.7567L80.6314 10.5597H78.3084V10.7167C78.3084 11.8147 78.4634 13.2267 78.4634 14.7957V23.7357H81.0964V16.6777C81.0964 15.4227 81.4064 14.4817 82.0264 13.6977C82.6464 13.0697 83.4204 12.5997 84.1944 12.5997H85.1234V9.93169H84.9684C84.9684 10.2457 84.6584 10.2457 84.5044 10.2457V10.2467ZM87.6024 10.5597H90.2354V23.7367H87.6024V10.5597ZM88.9964 5.06969C88.5314 5.06969 88.0664 5.22669 87.7564 5.53969C87.4464 5.85469 87.2924 6.32469 87.2924 6.79569C87.2924 7.26569 87.4474 7.73569 87.7574 8.05069C88.0674 8.36369 88.5314 8.52069 88.9964 8.52069C89.4604 8.52069 89.9264 8.36369 90.2354 8.05069C90.5454 7.73669 90.7004 7.26569 90.7004 6.79569C90.7004 6.32569 90.5454 5.85469 90.2354 5.54069C89.9254 5.22669 89.4604 5.07069 88.9954 5.07069L88.9964 5.06969ZM99.5294 10.2467C97.6694 10.2467 96.1214 11.0307 95.0374 12.4427L94.8824 10.4027H92.4044V10.5597C92.4044 11.6577 92.5594 13.0697 92.5594 14.7957V29.0697H95.1934V22.3247C95.5034 22.7947 95.9674 23.2657 96.5874 23.5797C97.3614 23.8937 98.1364 24.2067 98.9104 24.2067C100.614 24.2067 102.008 23.5797 103.092 22.1677C104.177 20.9127 104.796 19.0307 104.796 16.9917C104.796 15.1087 104.331 13.3837 103.247 12.1287C102.473 10.8737 101.079 10.2467 99.5304 10.2467H99.5294ZM116.877 20.5997V15.8937C116.877 14.1677 116.412 12.7567 115.637 11.8147C114.708 10.8747 113.469 10.4037 111.765 10.4037C110.062 10.4037 108.513 10.8737 107.273 11.6577L107.893 13.5407H108.048C108.978 12.9127 110.216 12.5997 111.456 12.5997C112.385 12.5997 113.159 12.9127 113.624 13.3837C114.089 13.8537 114.399 14.6387 114.399 15.4237V15.5797C111.765 15.5797 109.907 16.0497 108.513 16.8347C107.119 17.6187 106.499 18.8747 106.499 20.5997C106.499 21.6977 106.809 22.6387 107.583 23.2657C108.358 24.0507 109.287 24.3637 110.526 24.3637C112.23 24.3637 113.624 23.7367 114.554 22.4817L114.864 24.0507H117.342V23.8937C116.877 22.9527 116.877 21.8537 116.877 20.5997ZM130.507 20.2857V4.44169H127.875V11.9717C127.565 11.5007 127.1 11.1867 126.48 10.8727C125.706 10.5587 124.932 10.2457 124.157 10.2457C122.453 10.2457 121.059 10.8727 119.975 12.2847C118.891 13.5397 118.271 15.4217 118.271 17.4607C118.271 19.3437 118.736 21.0687 119.82 22.3237C120.904 23.5787 122.298 24.2057 123.847 24.2057C124.777 24.2057 125.706 23.8927 126.48 23.4217C127.1 23.1077 127.565 22.4807 128.03 21.8537L128.184 23.7357H130.663V23.5787C130.663 22.9517 130.508 21.6967 130.508 20.2847L130.507 20.2857ZM138.097 18.2457C137.787 17.3057 134.38 10.5597 134.38 10.5597H131.437L137.943 23.7367L144.448 10.5597H141.505C141.66 10.5597 138.407 17.6197 138.098 18.2467L138.097 18.2457ZM145.842 10.5597H148.476V23.7367H145.842V10.5597ZM147.237 5.06969C146.772 5.06969 146.307 5.22669 145.997 5.53969C145.687 5.85469 145.533 6.32469 145.533 6.79569C145.533 7.26569 145.688 7.73569 145.997 8.05069C146.307 8.36369 146.772 8.52069 147.237 8.52069C147.701 8.52069 148.166 8.36369 148.476 8.05069C148.786 7.73669 148.94 7.26569 148.94 6.79569C148.94 6.32569 148.785 5.85469 148.476 5.54069C148.166 5.22669 147.701 5.07069 147.236 5.07069L147.237 5.06969ZM156.53 16.0497C155.6 15.7367 154.826 15.4227 154.517 15.1097C154.207 14.7957 154.052 14.4817 154.052 14.0107C154.052 13.5407 154.207 13.0707 154.517 12.7567C154.827 12.4427 155.446 12.2857 156.066 12.2857C156.995 12.2857 157.924 12.5997 158.854 13.0697H159.009L159.629 11.0307C158.699 10.5607 157.615 10.2467 156.22 10.2467C154.826 10.2467 153.587 10.5597 152.813 11.3447C151.883 12.1287 151.573 13.0697 151.573 14.1677C151.573 15.8937 152.813 17.1477 155.136 17.9327C156.066 18.2467 156.686 18.5597 156.995 18.8737C157.305 19.1877 157.46 19.6577 157.46 20.1287C157.46 20.5987 157.305 21.0697 156.84 21.3837C156.375 21.6977 155.756 21.8537 155.136 21.8537C154.052 21.8537 152.968 21.5407 151.883 20.9137H151.728L151.108 23.1087H151.264C152.348 23.7367 153.742 24.0507 155.136 24.0507C156.686 24.0507 157.924 23.7367 158.854 22.9527C159.783 22.1677 160.248 21.2267 160.248 19.9727C160.248 19.0307 159.938 18.2467 159.473 17.6187C158.699 17.1487 157.769 16.5207 156.53 16.0507V16.0497ZM167.838 10.2467C165.978 10.2467 164.43 10.8737 163.191 12.1287C161.951 13.3837 161.332 15.1087 161.332 17.3057C161.332 19.3447 161.952 20.9127 163.036 22.1677C164.275 23.4227 165.669 24.0507 167.528 24.0507C168.612 24.0507 169.851 23.7367 170.781 23.1087C171.71 22.4817 172.639 21.6977 173.104 20.5987C173.724 19.5017 173.879 18.2467 173.879 16.8347C173.879 14.7947 173.259 13.2267 172.175 11.9717C171.245 10.8737 169.696 10.2467 167.838 10.2467ZM182.398 10.2467C181.623 10.2467 180.848 10.5597 180.074 11.0307C179.454 11.5007 178.99 11.9717 178.68 12.7567L178.525 10.5597H176.357V23.7357H178.99V16.6777C178.99 15.4227 179.3 14.4817 179.92 13.6977C180.539 13.0697 181.314 12.5997 182.088 12.5997H183.017V9.93169H182.862C182.862 10.2457 182.552 10.2457 182.398 10.2457V10.2467ZM114.244 19.3447C114.244 20.1287 113.934 20.7567 113.314 21.2267C112.694 21.8547 111.92 22.0107 110.991 22.0107C110.371 22.0107 109.907 21.8547 109.442 21.3837C109.132 21.0697 108.822 20.4427 108.822 19.8147C108.822 19.0307 109.132 18.2467 109.907 17.7757C110.681 17.3057 112.075 16.9917 114.089 16.9917V19.3447H114.244ZM127.874 18.0897C127.874 19.1877 127.564 20.1297 126.945 20.7567C126.325 21.3837 125.551 21.6967 124.622 21.6967C123.537 21.6967 122.608 21.2267 121.989 20.4427C121.369 19.5017 121.059 18.4027 121.059 17.1487C121.059 15.7367 121.369 14.6387 121.989 13.6977C122.609 12.7567 123.537 12.4427 124.622 12.4427C125.552 12.4427 126.326 12.7567 126.945 13.3837C127.565 14.0107 127.875 14.9527 127.875 15.8937V18.0897H127.874ZM101.233 20.5997C100.613 21.3837 99.6834 21.8547 98.5994 21.8547C97.6694 21.8547 96.8954 21.5407 96.2764 20.9127C95.6564 20.2857 95.3464 19.3447 95.3464 18.4027V16.3637C95.3464 16.0507 95.5014 15.4237 95.6564 14.7957C95.8114 14.1677 96.2764 13.6977 96.8964 13.2267C97.4263 12.8122 98.0817 12.591 98.7544 12.5997C99.8384 12.5997 100.613 13.0697 101.387 13.8547C102.007 14.6387 102.317 15.7367 102.317 17.1487C102.317 18.5597 102.007 19.8147 101.233 20.5987V20.5997ZM170.316 20.7567C169.541 21.6967 168.767 22.1677 167.683 22.1677C166.598 22.1677 165.824 21.6977 165.049 20.7567C164.275 19.8147 163.965 18.7167 163.965 17.3057C163.965 15.8937 164.275 14.7957 165.049 13.8547C165.669 12.9127 166.599 12.4427 167.838 12.4427C168.922 12.4427 169.851 12.9127 170.471 13.8547C171.091 14.7947 171.401 15.8937 171.401 17.3047C171.401 18.5597 171.091 19.8147 170.316 20.7567Z" fill="#B2B2B2"/>
</svg>
