<svg width="140" height="36" viewBox="0 0 140 36" fill="none" xmlns="http://www.w3.org/2000/svg">
<path fill-rule="evenodd" clip-rule="evenodd" d="M139.96 8.22277L137.056 8.22577L137.066 19.0928C137.071 22.0908 135.342 23.1838 133.082 23.2288C130.825 23.1838 129.631 21.7298 129.626 18.7578L129.624 8.23377H126.747L126.755 18.7638C126.763 24.6088 129.591 26.2738 133.09 26.2738C135.064 26.2738 136.415 25.4148 137.074 24.6258L137.071 27.2688C137.018 29.2608 136.371 31.2648 135.179 31.8958C134.052 32.4838 133.209 32.3328 132.893 32.3228V35.4508C132.893 35.4508 135.048 35.7168 136.936 34.6438C138.757 33.5928 139.983 30.4118 139.977 27.0598L139.96 8.22277ZM28.1525 8.15177C26.1425 8.15177 24.7685 9.02177 24.0925 9.79177L24.0775 0.938769L21.1265 0.943769L21.1485 26.1918L24.1065 26.1838L24.0955 16.0298C24.0955 13.0468 25.8555 11.2368 28.1575 11.1898C30.4675 11.2338 31.6875 13.3898 31.6915 16.3818L31.7015 26.1738H34.6165L34.6105 16.3818C34.5985 10.5188 31.7205 8.14177 28.1535 8.15177H28.1525ZM79.4935 16.2018C79.9155 12.8638 81.7155 10.8518 84.4235 10.8518C87.7965 10.8518 89.1255 13.4258 89.4395 16.2018H79.4935ZM84.4985 8.07977C79.7925 8.08677 76.5845 12.1668 76.5885 17.5678C76.5945 22.9788 79.9495 26.3428 84.8255 26.3318C87.7165 26.3318 89.5625 25.2818 91.5425 22.9298L91.6685 22.7938L89.8565 21.0838L89.7365 21.2118C88.2295 22.9018 86.9135 23.5158 84.8895 23.5158C81.8355 23.5158 79.8765 22.1538 79.4755 18.8058L92.1215 18.7948L92.1465 18.6318C92.1695 18.2168 92.1665 17.9318 92.1695 17.7018C92.1665 11.9468 89.2695 8.07577 84.4985 8.07977ZM98.4175 10.2508V8.26277H95.4565L95.4745 26.1078H98.4305L98.4245 15.8938C98.4215 12.9008 100.834 11.2858 103.127 11.2328C103.447 11.2468 103.768 11.2788 104.062 11.3408V8.15777C103.751 8.11465 103.437 8.09559 103.123 8.10077C100.973 8.09277 99.4185 8.84377 98.4175 10.2508ZM10.1365 12.2168C6.71348 11.3468 4.50648 10.7308 4.50648 7.72077C4.50448 5.21177 6.56248 3.68177 9.65148 3.67677C11.8135 3.67677 13.9015 4.60677 15.1615 6.26677L17.3335 4.25377C16.4365 2.57377 13.5485 0.607769 9.60248 0.613769C5.03448 0.621769 1.60048 3.70877 1.60048 7.80177C1.60548 12.9248 5.24648 14.1818 8.94448 15.1278C12.5295 16.0438 15.0405 16.9978 15.0405 19.9318C15.0425 22.6368 13.0305 23.3838 9.66948 23.3838C6.21148 23.3908 4.21948 21.3788 3.19348 19.7728L0.982483 21.8508C1.74448 23.9858 5.36848 26.4538 9.70748 26.4538C14.7405 26.4388 17.9925 24.2708 17.9815 19.8068C17.9895 14.8128 14.1815 13.2228 10.1365 12.2168ZM120.012 0.835769L120.037 26.0718L122.951 26.0568L122.931 0.829769L120.011 0.835769H120.012ZM48.1025 8.32777L48.1075 19.0998C48.1145 22.1018 46.7405 23.2028 44.4455 23.2468C42.1375 23.2098 40.7735 22.1018 40.7675 19.1168L40.7575 8.33077H37.8175L37.8305 19.2558C37.8365 24.1438 40.3095 26.3858 44.4455 26.3778C48.5825 26.3708 51.0455 24.1308 51.0425 19.2488L51.0325 8.31677L48.1025 8.32677V8.32777ZM72.5385 22.7848C71.3125 22.1708 70.6485 21.3698 70.5685 19.3778L70.5625 11.4018L74.8665 11.3978L74.8585 8.29577L70.5555 8.30277L70.5525 0.891769H67.5985L67.6125 8.30377H65.4905V11.4138H67.6145L67.6245 19.3848C67.6265 22.7268 68.8815 24.4998 70.7515 25.5428C72.6765 26.6098 74.8795 26.3368 74.8795 26.3368L74.8745 23.2188C74.5445 23.2188 73.6815 23.3738 72.5385 22.7858V22.7848ZM60.9025 22.7928C59.6775 22.1708 59.0075 21.3788 58.9255 19.3898V11.4228L63.2265 11.4128V8.30577L58.9185 8.31277L58.9165 0.902769H55.9745L55.9795 8.31277H53.8565L53.8645 11.4278H55.9875L55.9905 19.3898C55.9995 22.7438 57.2505 24.5078 59.1115 25.5558C61.0365 26.6308 63.2435 26.3558 63.2435 26.3558V23.2288C62.9115 23.2288 62.0475 23.3818 60.9025 22.7928ZM116.114 8.23277H111.808V8.07477C111.879 6.08677 112.543 4.70477 113.768 4.07077C114.914 3.48277 115.782 3.63777 116.111 3.63777V0.499769C116.111 0.499769 113.891 0.281769 111.976 1.35977C110.127 2.41477 108.869 4.93577 108.872 8.28377L108.869 8.23777H106.746L106.75 11.3408H108.872L108.886 26.0828L111.828 26.0748L111.811 11.3328L116.119 11.3288L116.114 8.23377V8.23277Z" fill="#B2B2B2"/>
</svg>
