<svg width="150" height="23" viewBox="0 0 150 23" fill="none" xmlns="http://www.w3.org/2000/svg">
<path fill-rule="evenodd" clip-rule="evenodd" d="M23.6897 0.481964H1.0467C0.716696 1.80196 1.7067 2.90196 2.9157 2.90196H23.5797C26.3277 2.90196 28.5257 5.54196 27.8667 8.40196C27.3167 10.492 25.7777 16.762 25.7777 16.762C25.3377 18.742 23.5797 20.062 21.4907 20.062H4.6737C3.9047 20.062 3.2447 19.402 3.4647 18.522C4.0147 16.432 5.5537 10.272 5.5537 10.272C5.8837 9.06196 4.8937 7.85196 3.6847 7.85196C3.6847 7.85196 1.8167 15.332 1.1567 17.862C0.496696 20.282 2.2567 22.482 4.6737 22.482H21.6007C24.6787 22.482 27.4267 20.282 28.1957 17.312C28.1957 17.312 29.7357 11.042 30.2847 8.95196C31.4927 4.33196 27.8667 0.481964 23.6897 0.481964ZM54.3557 20.062C53.9157 22.152 53.3667 22.482 52.2677 22.482H31.7127C31.4281 22.4913 31.1467 22.4187 30.9021 22.273C30.6574 22.1272 30.4597 21.9144 30.3323 21.6597C30.2049 21.4049 30.1533 21.119 30.1835 20.8359C30.2137 20.5527 30.3245 20.2841 30.5027 20.062H54.3547H54.3557ZM88.5397 0.481964C88.0997 2.57196 87.5497 2.90196 86.4517 2.90196H69.4147C67.4357 2.90196 65.6777 4.22196 65.1277 6.20196C64.5777 8.29196 63.5887 12.472 63.0397 14.562C62.2697 17.532 64.5777 20.062 67.3257 20.062H83.5937C83.8905 20.0571 84.1844 20.1216 84.452 20.2503C84.7195 20.379 84.9532 20.5684 85.1347 20.8035C85.3161 21.0385 85.4401 21.3126 85.4969 21.604C85.5536 21.8954 85.5416 22.196 85.4617 22.482H67.3257C62.7097 22.482 59.6317 18.302 60.7307 14.012C61.1707 11.922 62.2707 7.85196 62.8197 5.65196C63.4797 2.57196 66.2267 0.481964 69.4147 0.481964H88.5397ZM111.622 0.481964H98.7627C95.6857 0.481964 92.9377 2.68196 92.1677 5.65196C91.6177 7.74196 90.6287 11.812 90.0797 14.012C89.0897 18.302 92.1677 22.482 96.6747 22.482H109.535C112.613 22.482 115.361 20.282 116.13 17.312C116.68 15.222 117.669 11.152 118.218 8.95196C119.318 4.66196 116.24 0.481964 111.623 0.481964H111.622ZM115.909 8.40196C115.359 10.492 114.37 14.562 113.821 16.762C113.381 18.742 111.622 20.062 109.534 20.062H96.6737C94.0357 20.062 91.6177 17.532 92.3867 14.562C92.9367 12.472 93.9257 8.29196 94.4757 6.20196C95.0257 4.11196 96.8937 2.90196 98.6517 2.90196H111.622C114.37 2.90196 116.679 5.43196 115.909 8.40196ZM56.7737 10.272L56.1147 12.692H35.9997L37.8687 10.272H56.7727H56.7737ZM43.3637 2.90196C44.4647 1.47196 45.0147 0.481964 46.6627 0.481964H56.7747C57.0716 0.476923 57.3656 0.541298 57.6333 0.66996C57.9009 0.798622 58.1348 0.988015 58.3164 1.22305C58.4979 1.45808 58.622 1.73226 58.6788 2.02375C58.7357 2.31523 58.7236 2.61595 58.6437 2.90196H43.3647H43.3637ZM127.45 2.90196C126.9 2.90196 126.351 3.34196 126.241 3.78196C126.241 3.78196 125.361 7.41196 125.032 8.62196C124.812 9.50196 125.472 10.162 126.242 10.162H142.948C145.367 10.162 147.125 12.362 146.466 14.672C146.136 15.882 145.586 18.302 145.256 19.512C144.926 20.832 143.718 22.262 141.739 22.262H118.987C119.427 20.172 119.976 19.842 121.075 19.842H141.739C142.289 19.842 142.729 19.402 142.949 18.962C142.949 18.962 143.828 15.332 144.157 14.122C144.377 13.352 143.717 12.582 142.948 12.582H126.241C123.603 12.582 122.064 10.272 122.614 8.07196C122.944 6.86196 123.494 4.44196 123.824 3.23196C124.263 1.47196 125.801 0.481964 127.339 0.481964H149.983C149.543 2.57196 148.993 2.90196 147.895 2.90196H127.45Z" fill="#B2B2B2"/>
</svg>
