<svg width="103" height="40" viewBox="0 0 103 40" fill="none" xmlns="http://www.w3.org/2000/svg">
<path fill-rule="evenodd" clip-rule="evenodd" d="M29.0204 6.48169C30.6284 6.48169 31.9824 5.17769 31.9824 3.46069C31.9836 3.07058 31.9079 2.68406 31.7597 2.3232C31.6115 1.96235 31.3936 1.63423 31.1185 1.35759C30.8435 1.08095 30.5166 0.86121 30.1566 0.710921C29.7966 0.560632 29.4105 0.482738 29.0204 0.481689C27.3654 0.481689 25.9824 1.78769 25.9824 3.46069C25.9824 5.17769 27.3654 6.48169 29.0204 6.48169ZM30.4804 20.0957V10.4817H25.9824V20.0957C25.9824 25.2787 30.0174 29.4817 34.9824 29.4817V24.7977C32.5014 24.7977 30.4794 22.6857 30.4794 20.0957H30.4804ZM51.3704 11.8977C49.9874 11.0647 48.4424 10.4817 46.6544 10.4817H46.6084C44.0414 10.4817 41.6244 11.5097 39.8104 13.2497C38.9169 14.1116 38.206 15.1446 37.7202 16.2871C37.2343 17.4296 36.9834 18.6582 36.9824 19.8997V20.2727C36.9824 25.4297 41.2594 29.6127 46.5924 29.6127C48.2708 29.6131 49.9193 29.169 51.3704 28.3257V39.4817H55.9824V10.7497H51.3704V11.8977ZM98.6314 18.5757L95.6974 17.6397C94.6784 17.2927 93.8624 16.7437 93.9074 16.0097C93.9934 14.6327 95.1374 14.2767 96.2754 14.3497C97.1354 14.4047 98.1454 14.8197 98.4724 15.7257L102.409 13.7827C101.303 11.6417 98.8584 10.6547 96.4034 10.4977C92.8434 10.2697 89.6644 12.5627 89.4834 15.4797C89.3514 17.6197 89.6374 19.7907 94.1974 21.3667L96.6114 22.1567C97.8834 22.5487 98.5504 23.0627 98.4504 23.9937C98.3854 25.0467 97.3074 25.7237 96.0034 25.6807C94.4724 25.6467 93.2124 24.7157 92.9154 23.6107L88.9824 25.5417C90.0504 27.8887 92.6624 29.2887 95.3084 29.4587C99.0164 29.6967 102.742 28.0217 102.971 24.3287C103.061 22.8787 102.707 19.9287 98.6314 18.5747V18.5757ZM11.9354 1.48169H10.2044C7.73942 1.48169 5.42642 2.55369 3.67842 4.33469C1.94242 6.09269 0.982422 8.40269 0.982422 11.0447H5.59242C5.59242 9.67769 6.07842 8.64169 6.95642 7.75069C7.37948 7.31911 7.88507 6.97708 8.44307 6.74498C9.00108 6.51288 9.60009 6.39545 10.2044 6.39969H11.8604V20.1157C11.8604 25.2877 15.8964 29.4817 21.1884 29.4817V24.8077C18.4084 24.8077 16.3444 22.6997 16.3444 20.1157V6.39969H22.9824V1.48169H11.9354ZM65.9634 10.4817C61.2874 10.4817 56.9824 14.2037 56.9824 19.9117C56.9824 25.9487 61.3994 29.4817 66.4094 29.4817C70.0944 29.4817 72.7024 27.7457 74.0334 25.4137L70.1314 23.5577C69.4274 24.6327 68.2614 25.3317 66.4464 25.3317C63.9964 25.3317 61.9564 23.4677 61.8444 21.2487H74.9084C74.9084 21.2487 74.9824 20.4597 74.9824 19.7687C74.9824 14.0247 71.6054 10.4817 65.9634 10.4817ZM79.4134 20.0727C79.4134 24.7097 83.2364 28.4817 87.9394 28.4817V24.0057C85.7464 24.0057 83.9494 22.2557 83.9494 20.0727H83.9454V14.2477H87.9824V10.3947H83.9454V4.48169H79.4124V10.3947H75.9824V14.2477H79.4124V20.0727H79.4134ZM51.4474 20.2727C51.4474 21.5167 50.8854 22.6927 49.9704 23.5627C49.0704 24.4577 47.9704 24.9407 46.6824 24.9407C44.0164 24.9407 41.9624 22.8507 41.9624 20.2727V19.8997C41.9624 18.6607 42.3994 17.4837 43.3114 16.6077C44.2059 15.7254 45.4091 15.2268 46.6654 15.2177C49.3154 15.2277 51.4284 17.2637 51.4284 19.8507L51.4484 20.2727H51.4474ZM61.9564 17.9637C62.0664 16.1887 63.4774 14.4367 66.0384 14.4367C68.8584 14.4367 70.0464 16.1887 70.1204 17.9637H61.9564Z" fill="#B2B2B2"/>
</svg>
