<svg width="175" height="33" viewBox="0 0 175 33" fill="none" xmlns="http://www.w3.org/2000/svg">
<path fill-rule="evenodd" clip-rule="evenodd" d="M18.3564 11.3947C14.5514 11.3947 11.2514 12.7597 9.33442 15.0417V0.481689H0.982422V32.3907H9.33442V27.2377C9.33442 22.0477 11.6144 19.0727 15.5864 19.0727C18.3094 19.0727 19.8734 20.1047 20.5084 22.3207C20.9214 23.7637 21.0044 25.6257 21.0044 28.1597V32.3897H29.3554V26.2517C29.3554 20.5257 28.8124 17.8117 27.1944 15.4847C25.1894 12.7337 22.2994 11.3947 18.3564 11.3947ZM28.1144 13.7517C28.5964 14.4447 28.9894 15.1637 29.3094 15.9567V0.493689H20.9574V9.40769C23.9904 9.91169 26.3524 11.3357 28.1144 13.7517ZM49.8224 25.9557H46.7964V8.78569H49.8224V15.7287H57.4874V8.78469H60.5124V25.9547H57.4374L57.4874 18.4307H49.8224V25.9557ZM68.8324 13.6577C72.4884 13.6577 74.8324 16.1327 74.8324 19.9957C74.8324 23.8347 72.5144 26.2577 68.8324 26.2577C65.1524 26.2577 62.8324 23.8347 62.8324 19.9957C62.8324 16.1327 65.1774 13.6577 68.8324 13.6577ZM83.4304 26.0577C82.8764 26.1837 82.1454 26.2587 81.2884 26.2587C80.1284 26.2587 78.9184 26.0317 78.2624 25.2247C77.7824 24.6447 77.7584 23.9607 77.7584 22.8007V16.1837H75.1884V13.9357H77.7584V9.74569L80.6324 9.11269V13.9357H83.4304V16.1837H80.6324V22.3197C80.6324 23.0017 80.7324 23.3297 80.9604 23.5577C81.1864 23.8087 81.6664 23.8857 82.1704 23.8857C82.6754 23.8857 83.1284 23.8357 83.4304 23.7857V26.0577ZM95.9374 23.2297C95.4074 24.0627 93.7934 26.2577 90.2884 26.2577C86.7344 26.2577 84.3134 23.7337 84.3134 19.8457C84.3134 16.1347 86.8604 13.6587 90.2134 13.6587C94.0464 13.6587 95.8864 16.3087 95.8864 19.9967C95.8864 20.1987 95.8614 20.5267 95.8614 20.7287H87.1114C87.3144 22.3707 88.3224 23.7837 90.4404 23.7837C92.6084 23.7837 93.5664 22.3197 93.9434 21.7137L95.9374 23.2297ZM98.1064 25.9567H100.98V8.78369H98.1064V25.9557V25.9567ZM111.896 18.3047C111.468 17.0177 110.56 16.1337 109.098 16.1337C107.181 16.1337 105.97 17.5477 105.97 19.9467C105.97 22.3457 107.207 23.7587 109.098 23.7587C110.736 23.7587 111.543 22.8007 111.972 21.7137L114.291 22.9517C113.737 24.2387 112.098 26.2587 109.021 26.2587C105.542 26.2587 103.121 24.0367 103.121 19.9967C103.121 15.9567 105.719 13.6587 109.021 13.6587C111.821 13.6587 113.559 15.1477 114.291 17.0437L111.896 18.3047ZM126.646 25.9567H123.771V19.8717C123.771 18.9617 123.746 18.1787 123.57 17.5747C123.318 16.7147 122.687 16.1847 121.45 16.1847C119.662 16.1847 118.805 17.5747 118.805 19.5167V25.9567H115.93V8.78569H118.805V15.4757C119.359 14.4157 120.721 13.6317 122.535 13.6317C123.898 13.6317 125.031 14.0367 125.84 15.1217C126.394 15.9057 126.645 16.8147 126.645 19.1377V25.9557L126.646 25.9567ZM138.949 23.2047C138.949 23.9627 139.051 24.2137 139.731 24.2137H139.881V26.1087C139.731 26.1317 139.351 26.2347 138.521 26.2347C137.411 26.2347 136.631 25.9297 136.402 24.9967H136.378C135.898 25.5517 134.941 26.2847 132.798 26.2847C130.478 26.2847 128.563 25.1227 128.563 22.4967C128.563 21.5867 128.815 20.9067 129.243 20.3767C129.973 19.4917 131.235 19.0127 132.799 18.7347L135.446 18.2807C136.076 18.1537 136.202 18.1017 136.202 17.6487V17.4467C136.202 16.4367 135.546 15.9327 134.058 15.9327C132.445 15.9327 131.613 16.6127 131.637 18.0267L128.939 17.8507C128.891 14.8957 131.311 13.7107 134.185 13.7107C136.935 13.7107 138.949 14.5927 138.949 17.2437V23.2037V23.2047ZM151.985 15.5017C152.715 14.6197 153.926 13.6337 156.095 13.6337C157.633 13.6337 158.641 14.0887 159.271 14.7957C160.027 15.6527 160.328 16.4857 160.328 19.1387V25.9567H157.456V19.8677C157.456 17.6977 157.304 16.1827 155.136 16.1827C153.346 16.1827 152.539 17.5727 152.539 19.5157V25.9547H149.666V19.8677C149.666 17.6977 149.515 16.1827 147.346 16.1827C145.581 16.1827 144.75 17.5727 144.75 19.5157V25.9547H141.875V13.9347H144.75V15.4737C145.33 14.4657 146.615 13.6317 148.506 13.6317C149.741 13.6317 150.774 14.0097 151.481 14.7937C151.681 15.0197 151.834 15.2477 151.985 15.4997V15.5017ZM166.029 24.6937V30.7537H163.155V13.9357H166.029V15.2487C166.684 14.3887 167.996 13.6327 169.559 13.6327C172.811 13.6327 174.879 16.2597 174.879 19.9957C174.879 23.6067 172.761 26.2577 169.559 26.2577C167.946 26.2577 166.786 25.6277 166.029 24.6927V24.6937ZM68.8324 23.7847C70.6734 23.7847 71.9844 22.3187 71.9844 19.9467C71.9844 17.5227 70.7244 16.1077 68.8324 16.1077C66.9424 16.1077 65.6814 17.5477 65.6814 19.9467C65.6814 22.3457 66.9914 23.7847 68.8324 23.7847ZM87.1884 18.5827H93.0364C92.9614 17.0177 91.8264 15.9557 90.2124 15.9557C88.5734 15.9557 87.2644 17.1447 87.1884 18.5827ZM136.202 21.6877V20.2247C135.772 20.3767 135.42 20.4777 134.562 20.6527L133.455 20.8807C132.092 21.1587 131.487 21.5117 131.487 22.4707C131.487 23.4557 132.141 24.1147 133.555 24.1147C135.116 24.1147 136.202 23.3297 136.202 21.6877ZM168.952 23.7587C170.794 23.7587 172.002 22.3187 172.002 19.9467C172.002 17.5227 170.794 16.1077 168.952 16.1077C167.137 16.1077 165.902 17.6227 165.902 19.9467C165.902 22.2697 167.137 23.7587 168.952 23.7587Z" fill="#B2B2B2"/>
</svg>
