<svg width="178" height="40" viewBox="0 0 178 40" fill="none" xmlns="http://www.w3.org/2000/svg">
<path fill-rule="evenodd" clip-rule="evenodd" d="M55.2485 28.2777V12.5477H65.3465V15.3417H58.8125V19.4997H63.9825V22.1837H58.8125V28.2777H55.2485ZM67.5245 28.2777V11.5577H70.6925V28.2777H67.5245ZM73.6845 28.2777V16.7717H76.8525V28.2777H73.6845ZM75.2465 15.2097C74.7335 15.2097 74.3045 15.0447 73.9595 14.7147C73.6145 14.3847 73.4425 13.9707 73.4425 13.4717C73.4425 12.9737 73.6145 12.5587 73.9595 12.2287C74.3045 11.8987 74.7335 11.7337 75.2465 11.7337C75.7595 11.7337 76.1925 11.8987 76.5445 12.2287C76.8965 12.5587 77.0725 12.9737 77.0725 13.4717C77.0725 13.9707 76.8965 14.3847 76.5445 14.7147C76.1925 15.0447 75.7595 15.2097 75.2465 15.2097ZM83.9805 28.4977C82.7635 28.4977 81.8395 28.1897 81.2085 27.5737C80.5785 26.9577 80.2625 26.0557 80.2625 24.8677V19.0377H78.7885V16.7717H80.2625V14.2857H83.4305V16.7717H85.8505V19.0377H83.4305V24.5817C83.4305 25.4917 83.8555 25.9457 84.7065 25.9457C85.1615 25.9457 85.5645 25.8727 85.9165 25.7257V28.1897C85.2932 28.401 84.6386 28.5051 83.9805 28.4977ZM92.4935 28.5197C90.9385 28.5197 89.7285 28.1897 88.8635 27.5297C87.9975 26.8697 87.5355 25.9167 87.4775 24.6697H90.4475C90.5205 25.2127 90.7115 25.6197 91.0195 25.8907C91.3275 26.1627 91.8115 26.2977 92.4715 26.2977C93.6735 26.2977 94.2755 25.8797 94.2755 25.0437C94.2755 24.6627 94.0995 24.3697 93.7475 24.1637C93.3955 23.9587 92.7935 23.7977 91.9435 23.6797C90.3885 23.4457 89.2925 23.0637 88.6535 22.5357C88.0165 22.0077 87.6975 21.1937 87.6975 20.0937C87.6975 18.9497 88.1405 18.0667 89.0275 17.4437C89.9155 16.8197 90.9895 16.5077 92.2515 16.5077C95.1555 16.5077 96.7395 17.6957 97.0035 20.0717H94.0775C93.9015 19.1477 93.2995 18.6857 92.2735 18.6857C91.7595 18.6857 91.3605 18.7957 91.0735 19.0157C90.7885 19.2357 90.6455 19.5217 90.6455 19.8737C90.6455 20.2407 90.8025 20.5117 91.1185 20.6877C91.4335 20.8637 92.0165 21.0107 92.8675 21.1277C94.4215 21.3477 95.5545 21.7147 96.2665 22.2277C96.9765 22.7417 97.3335 23.5777 97.3335 24.7357C97.3335 25.9677 96.9115 26.9067 96.0685 27.5517C95.2245 28.1977 94.0335 28.5197 92.4935 28.5197ZM99.3575 28.2777V16.7717H102.547V18.5317C102.855 17.9457 103.317 17.4617 103.933 17.0797C104.549 16.6987 105.26 16.5077 106.067 16.5077C107.665 16.5077 108.736 17.1757 109.279 18.5097C110.173 17.1757 111.464 16.5077 113.151 16.5077C114.28 16.5077 115.193 16.8747 115.89 17.6077C116.586 18.3417 116.935 19.4417 116.935 20.9077V28.2777H113.767V21.2597C113.767 19.8377 113.165 19.1257 111.963 19.1257C111.317 19.1257 110.786 19.3317 110.368 19.7417C109.95 20.1527 109.741 20.7317 109.741 21.4797V28.2777H106.573V21.2597C106.573 19.8377 105.971 19.1257 104.769 19.1257C104.123 19.1257 103.592 19.3317 103.174 19.7417C102.756 20.1527 102.547 20.7317 102.547 21.4797V28.2777H99.3575ZM124.965 28.5197C123.19 28.5197 121.745 27.9957 120.631 26.9467C119.516 25.8987 118.959 24.4717 118.959 22.6677V22.4917C118.959 20.7027 119.519 19.2577 120.642 18.1577C121.764 17.0577 123.175 16.5077 124.877 16.5077C126.49 16.5077 127.828 16.9997 128.892 17.9817C129.955 18.9647 130.487 20.4237 130.487 22.3597V23.2397H122.193C122.237 24.1937 122.508 24.9337 123.007 25.4617C123.505 25.9897 124.187 26.2537 125.053 26.2537C126.431 26.2537 127.231 25.7187 127.451 24.6477H130.465C130.274 25.8947 129.702 26.8517 128.749 27.5187C127.795 28.1867 126.534 28.5197 124.965 28.5197ZM122.237 21.2817H127.385C127.282 19.5657 126.445 18.7077 124.877 18.7077C124.157 18.7077 123.567 18.9317 123.106 19.3787C122.644 19.8267 122.354 20.4607 122.236 21.2817H122.237ZM132.665 28.2777V16.7717H135.833V28.2777H132.665ZM134.227 15.2097C133.713 15.2097 133.284 15.0447 132.94 14.7147C132.595 14.3847 132.423 13.9707 132.423 13.4717C132.423 12.9737 132.595 12.5587 132.94 12.2287C133.284 11.8987 133.713 11.7337 134.227 11.7337C134.74 11.7337 135.173 11.8987 135.525 12.2287C135.877 12.5587 136.053 12.9737 136.053 13.4717C136.053 13.9707 135.877 14.3847 135.525 14.7147C135.173 15.0447 134.74 15.2097 134.227 15.2097ZM142.939 28.5197C141.384 28.5197 140.174 28.1897 139.309 27.5297C138.443 26.8697 137.981 25.9167 137.923 24.6697H140.893C140.966 25.2127 141.157 25.6197 141.465 25.8907C141.773 26.1627 142.257 26.2977 142.917 26.2977C144.119 26.2977 144.721 25.8797 144.721 25.0437C144.721 24.6627 144.545 24.3697 144.193 24.1637C143.841 23.9587 143.239 23.7977 142.389 23.6797C140.834 23.4457 139.738 23.0637 139.099 22.5357C138.462 22.0077 138.143 21.1937 138.143 20.0937C138.143 18.9497 138.586 18.0667 139.473 17.4437C140.361 16.8197 141.435 16.5077 142.697 16.5077C145.601 16.5077 147.185 17.6957 147.449 20.0717H144.523C144.347 19.1477 143.745 18.6857 142.719 18.6857C142.205 18.6857 141.806 18.7957 141.519 19.0157C141.234 19.2357 141.091 19.5217 141.091 19.8737C141.091 20.2407 141.248 20.5117 141.564 20.6877C141.879 20.8637 142.462 21.0107 143.313 21.1277C144.867 21.3477 146 21.7147 146.712 22.2277C147.422 22.7417 147.779 23.5777 147.779 24.7357C147.779 25.9677 147.357 26.9067 146.514 27.5517C145.67 28.1977 144.479 28.5197 142.939 28.5197ZM154.005 28.4977C152.787 28.4977 151.863 28.1897 151.233 27.5737C150.602 26.9577 150.287 26.0557 150.287 24.8677V19.0377H148.813V16.7717H150.287V14.2857H153.455V16.7717H155.875V19.0377H153.455V24.5817C153.455 25.4917 153.88 25.9457 154.731 25.9457C155.145 25.9534 155.557 25.8786 155.941 25.7257V28.1897C155.318 28.401 154.664 28.5051 154.005 28.4977ZM163.399 28.5197C161.624 28.5197 160.179 27.9957 159.065 26.9467C157.95 25.8987 157.393 24.4717 157.393 22.6677V22.4917C157.393 20.7027 157.953 19.2577 159.076 18.1577C160.198 17.0577 161.609 16.5077 163.311 16.5077C164.924 16.5077 166.262 16.9997 167.326 17.9817C168.389 18.9647 168.921 20.4237 168.921 22.3597V23.2397H160.627C160.671 24.1937 160.942 24.9337 161.441 25.4617C161.939 25.9897 162.621 26.2537 163.487 26.2537C164.865 26.2537 165.665 25.7187 165.885 24.6477H168.899C168.708 25.8947 168.136 26.8517 167.183 27.5187C166.229 28.1867 164.968 28.5197 163.399 28.5197ZM160.671 21.2817H165.819C165.716 19.5657 164.879 18.7077 163.311 18.7077C162.591 18.7077 162.001 18.9317 161.54 19.3787C161.078 19.8267 160.788 20.4607 160.67 21.2817H160.671ZM171.011 28.2777V16.7717H174.201V18.9717C174.934 17.4027 176.173 16.6107 177.919 16.5957V19.5657C176.687 19.5517 175.759 19.7757 175.136 20.2367C174.512 20.6987 174.201 21.4577 174.201 22.5137V28.2777H171.011ZM28.0465 0.481689H12.5815C8.39248 0.481689 6.11248 0.481689 3.56048 3.08169C1.00748 5.68169 0.982483 7.95669 0.982483 12.1817V27.7817C0.982483 32.0067 1.00748 34.2817 3.56048 36.8817C6.11248 39.4817 8.39248 39.4817 12.5805 39.4817H28.0465C32.2345 39.4817 34.8105 39.4817 37.0675 36.8817C39.3255 34.2817 39.6455 32.0067 39.6455 27.7817V12.1817C39.6455 7.95669 39.6255 5.68169 37.0675 3.08169C34.5095 0.481689 32.2445 0.481689 28.0465 0.481689ZM14.8365 19.7817H11.3895V17.3917H16.1585C16.8553 16.2818 17.6214 15.217 18.4525 14.2037H8.14448V25.7597H11.3895V22.9697H13.6335C13.9478 21.8765 14.3505 20.8107 14.8375 19.7827L14.8365 19.7817ZM27.1135 14.2037L25.0205 20.3707L22.9825 14.2037H19.7055C17.9425 17.0657 17.4745 22.0547 17.4745 25.7597H20.7195V18.0667L23.4445 25.7597H26.5945L29.2575 18.0667V25.7597H32.4825V14.2037H27.1125H27.1135Z" fill="#B2B2B2"/>
</svg>
